<svg version="1.1" xmlns="http://www.w3.org/2000/svg" viewBox="0 0 846.79833984375 319.3650514483452" width="1693.5966796875" height="638.7301028966904" filter="invert(93%) hue-rotate(180deg)">
  <!-- svg-source:excalidraw -->
  
  <defs>
    <style>
      @font-face {
        font-family: "Virgil";
        src: url("https://excalidraw.com/Virgil.woff2");
      }
      @font-face {
        font-family: "Cascadia";
        src: url("https://excalidraw.com/Cascadia.woff2");
      }
    </style>
  </defs>
  <g transform="translate(354.9496154785156 10) rotate(0 57.678070068359375 24.908462524414062)"><path d="M-0.31028586626052856 -1.8090502619743347 C42.952729821316986 -0.6570109201852579, 87.41270595811325 1.965202443462203, 116.39427155256266 -0.3584257960319519 M0.046790748834609985 0.6362369954586029 C25.338162841178008 -1.2226468670404755, 50.39091799016203 -1.0457011807001435, 116.00797334313387 0.640706866979599 M115.52349823713297 -1.4571349024772644 C113.76080920746205 14.384152613493372, 115.28895595123646 24.31461249274526, 115.49270409345621 49.8956807255745 M116.16784730553621 -0.08325400948524475 C114.30432223499868 18.545989640794417, 115.39912032307241 38.512971328183454, 114.7442337572574 50.48408207297326 M114.08726280927652 47.83945208787919 C78.26781458728233 52.55908497466835, 39.54767056450689 48.87941845550331, -0.008961021900177002 49.25943690538407 M115.02691045403475 49.570912212133415 C72.87061871359307 51.256398709286174, 28.680788154792012 49.417292149532756, 0.2116648256778717 49.08972534537316 M-1.2459452748298645 50.79256373643876 C-0.6864801286074634 38.37686665741449, 0.9462808729794506 25.710498191671473, -1.8378966450691223 -1.108954131603241 M-0.8594182431697845 48.83890900015832 C0.33727261516552065 30.565319474474112, 0.06238076183300112 12.143139860899282, -0.9546016156673431 0.42541012167930603" stroke="#000000" stroke-width="1" fill="none"></path></g><g transform="translate(372.0066833496094 20.74566650390625) rotate(0 38.5 12.5)"><text x="0" y="18" font-family="Virgil, Segoe UI Emoji" font-size="20px" fill="#000000" text-anchor="start" style="white-space: pre;" direction="ltr">encoding</text></g><g transform="translate(367.717041015625 205.6059112548828) rotate(0 57.678070068359375 24.908462524414062)"><path d="M-1.062132179737091 1.8175519108772278 C22.26845970178964 0.01727110892288697, 46.905387032535124 0.3225899413203479, 113.8665463328361 -0.1825072169303894 M0.6694180071353912 -0.5233775675296783 C24.23237913487991 0.11969556459325759, 48.12703581926505 0.16211976655858962, 114.95994630455965 -0.6724721491336823 M116.4059292674064 -1.628872573375702 C116.01678084585238 10.488836318749692, 116.3227596208768 22.836342574156337, 117.20863121747965 51.41388446092606 M114.758492141962 0.933645099401474 C115.2976235387416 11.782031141004248, 114.35897436119033 24.272842719716397, 114.98453679680819 50.15210422873498 M114.83834618329996 51.38499957323075 C87.80159342446582 49.61610711873173, 60.973519864850424 49.213296068316694, 1.6849934458732605 50.13555079698563 M116.09338536858553 49.38151249289513 C78.73791832038383 51.73624391146487, 42.41922495382275 51.21574086733645, -0.501889556646347 49.10613617300988 M-0.891834557056427 48.07102137804032 C-0.35450117301962564 37.00618397324534, 1.9623418598172884 24.831300181731606, 1.0684601664543152 -0.35930508375167847 M0.4406992495059967 50.810397952795036 C0.3657995198393019 34.36383757729973, 0.8543354008817824 19.5733746139138, 0.3857990801334381 0.9073971211910248" stroke="#000000" stroke-width="1" fill="none"></path></g><g transform="translate(406.2747802734375 215.7787628173828) rotate(0 15.5 12.5)"><text x="0" y="18" font-family="Virgil, Segoe UI Emoji" font-size="20px" fill="#000000" text-anchor="start" style="white-space: pre;" direction="ltr">csv</text></g><g transform="translate(548.2940673828125 207.3067169189453) rotate(0 57.678070068359375 24.908462524414062)"><path d="M1.474490463733673 -0.8708251118659973 C37.21975949100032 0.9057749133508883, 75.03857588154821 -0.1352311749059476, 114.352361023426 -1.4215777516365051 M-0.4459172785282135 -0.8729518353939056 C28.69836795798163 -0.5105027457869253, 58.81320373160085 -0.34548371044756987, 115.89037021994585 -0.17965254187583923 M116.23753863573069 1.9869458079338074 C114.78198277610295 13.81175535182511, 115.75905453818791 28.94875971993516, 116.12773829698557 51.63171929121018 M115.100247234106 -0.20630201697349548 C115.39036800337989 20.35262493082892, 115.17211105300147 38.63094274777196, 115.23160919547075 50.58386006951333 M114.22727137804026 50.193074882030494 C73.5678306657164 47.686747991164616, 27.64209356667378 48.49644991072028, -0.7588717341423035 50.319446265697486 M115.79133972525591 49.33626332879067 C73.79647008007028 48.12435719656015, 31.785822846994023 48.45288941549325, 0.08398708701133728 49.95760217308999 M1.601891815662384 50.7367588877678 C1.382535463101185 31.343784141490055, -0.637585157626354 12.04034796943106, -0.6244856715202332 -0.5478499531745911 M-0.9048663675785065 49.01249566674233 C-0.8238047558952076 38.794713914978914, -0.3979577023673756 27.063901157356124, 0.7213076055049896 0.23942533135414124" stroke="#000000" stroke-width="1" fill="none"></path></g><g transform="translate(583.8858032226562 217.83876037597656) rotate(0 19 12.5)"><text x="19" y="18" font-family="Virgil, Segoe UI Emoji" font-size="20px" fill="#000000" text-anchor="middle" style="white-space: pre;" direction="ltr">json</text></g><g transform="translate(721.4421997070312 208.44325256347656) rotate(0 57.678070068359375 24.908462524414062)"><path d="M1.7691285014152527 1.601891815662384 C37.149472885993404 1.492119803707919, 72.0470902197903 -0.5280008170196199, 113.70146912336344 -0.6244856715202332 M0.9081455767154694 -0.9048663675785065 C30.642519860314664 -1.104162161435397, 63.665620950554484 -0.6783151079075649, 116.19098344445223 0.7213076055049896 M116.53186768293375 1.5443833470344543 C115.93605094854492 17.919041627453865, 116.31356292669433 32.937559771154525, 114.79916924238199 48.27488452196122 M114.57839646935457 -0.4645673334598541 C115.91586026050149 15.019584022745677, 114.12699135638772 29.876629666060584, 115.62878194451326 50.50962910056115 M116.2823998332023 49.29873400926591 C84.71808508999398 47.587055562607844, 59.07338704600439 48.218180059067805, -1.1954157948493958 49.90109187364579 M115.04524770379061 50.728295177221305 C88.32123055371171 48.195903984706554, 59.841018335273446 49.004136292140636, 0.23134484887123108 49.06412491202355 M1.6437718272209167 48.32679682970048 C-2.003322630880384 35.81577778779857, -0.22432139491847014 25.108774859177903, -0.7594588398933411 0.16233950853347778 M0.20030084252357483 50.53889450430871 C0.5136407700593828 35.08827358051395, -0.16835557546063679 18.77421881882856, 0.008803993463516235 0.9775684773921967" stroke="#000000" stroke-width="1" fill="none"></path></g><g transform="translate(758.6613159179688 218.6928253173828) rotate(0 14.5 12.5)"><text x="0" y="18" font-family="Virgil, Segoe UI Emoji" font-size="20px" fill="#000000" text-anchor="start" style="white-space: pre;" direction="ltr">xml</text></g><g transform="translate(181.868896484375 205.17457580566406) rotate(0 57.67807006835935 24.908462524414062)"><path d="M-1.2371394038200378 -1.9561617970466614 C39.134511655535775 -1.1356389947894963, 83.12072570317284 -0.7954805322650822, 116.22477656602854 1.9490792155265808 M0.9399116933345795 0.4773489534854889 C34.734398755123934 0.006672198229807691, 69.46330354152266 -1.0037543230714618, 115.27470383048052 0.9880615770816803 M114.38876277208323 -0.2727683186531067 C116.46488302845594 19.40089833749908, 113.73364180225965 38.189494192870015, 115.84152346849436 51.75573319196702 M116.09908279776567 0.585191398859024 C114.744754213061 14.908299681201338, 115.38895453807321 30.565056645184278, 114.9740665853023 50.74452462792397 M113.57924014329905 49.07734268903733 C78.53178678739182 50.14033736561151, 40.88405266976585 49.42886008594842, -1.3033263087272644 48.95267647504807 M116.09361156821245 50.300394684076316 C69.60069524561273 50.30276686693206, 25.493368522622376 50.75077540422454, 0.5937479436397552 50.62391248345376 M1.554995834827423 51.020868003368385 C-0.689258316509995 36.36180529604799, -2.202848175518784 18.47001553794635, 1.535710632801056 -1.7120440602302551 M0.3600214421749115 50.4119602739811 C0.7633436116033863 29.238503379758463, -0.3995239344781567 10.728773292176449, -0.6236983835697174 -0.5446732938289642" stroke="#000000" stroke-width="1" fill="none"></path></g><g transform="translate(206.9942626953125 217.49632263183594) rotate(0 33.5 12.5)"><text x="0" y="18" font-family="Virgil, Segoe UI Emoji" font-size="20px" fill="#000000" text-anchor="start" style="white-space: pre;" direction="ltr">base64</text></g><g><g transform="translate(270.1597595214844 204.17654418945312) rotate(0 50.23788515415504 -71.3709119975567)"><path d="M0.9536680340766905 0.10967291593551631 C17.661840420961372 -23.604106789827348, 83.7874929964542 -119.0409032404423, 100.48056528568263 -142.8514969110489 M-0.004794977372512221 -0.8783527485374362 C16.49196310960687 -24.39180318304338, 82.58639037960205 -118.1653213105444, 99.33371551179323 -141.63693232663908" stroke="#000000" stroke-width="1" fill="none"></path></g><g transform="translate(270.1597595214844 204.17654418945312) rotate(0 50.23788515415504 -71.3709119975567)"><path d="M91.59217791431034 -113.33356108675684 C93.05178087433336 -121.58259487332114, 95.74465218314894 -130.11075424234826, 101.02602709674272 -140.06441522964278 M91.59479721062267 -112.89750879417147 C93.10684295548153 -120.82302653466506, 94.99410944308741 -126.13034100854846, 99.5249051287118 -140.72293405064383" stroke="#000000" stroke-width="1" fill="none"></path></g><g transform="translate(270.1597595214844 204.17654418945312) rotate(0 50.23788515415504 -71.3709119975567)"><path d="M74.84738242416785 -125.1966056529356 C81.59726957433206 -129.7909123588783, 89.63665775086432 -134.5312698456497, 101.02602709674272 -140.06441522964278 M74.85000172048018 -124.76055336035023 C80.49598870223825 -129.7888314068937, 86.54667202192815 -132.14652494000973, 99.5249051287118 -140.72293405064383" stroke="#000000" stroke-width="1" fill="none"></path></g></g><g><g transform="translate(606.9504194457106 205.42855834960938) rotate(0 -80.74070393911484 -71.06542535502928)"><path d="M-0.25925120115280154 -0.7147308468818665 C-27.487558141808375 -24.647590013345084, -136.22748840382033 -119.93537471691768, -163.28691106713217 -143.65528222322465 M1.8055031889025122 1.5244315131660553 C-25.045693576560705 -22.2931609430754, -133.44057564553515 -118.76961953300673, -160.98062919391157 -142.68297999271192" stroke="#000000" stroke-width="1" fill="none"></path></g><g transform="translate(606.9504194457106 205.42855834960938) rotate(0 -80.74070393911484 -71.06542535502928)"><path d="M-134.23440900085876 -133.03924507233907 C-143.40624087322533 -135.33608432746044, -150.9453674462622 -137.65099697145524, -162.60733120454313 -141.21573518880643 M-132.89033901332328 -131.43687674734403 C-143.26775485187437 -135.1019738300481, -154.10846804877517 -138.91273443952014, -161.4124797762728 -142.54244115122594" stroke="#000000" stroke-width="1" fill="none"></path></g><g transform="translate(606.9504194457106 205.42855834960938) rotate(0 -80.74070393911484 -71.06542535502928)"><path d="M-147.7972150932547 -117.63891087837084 C-152.79901437119338 -124.63297882673209, -156.17556817215424 -131.6744216120539, -162.60733120454313 -141.21573518880643 M-146.45314510571922 -116.0365425533758 C-151.9025602463571 -125.46967861593066, -157.74271476675068 -134.95848801929753, -161.4124797762728 -142.54244115122594" stroke="#000000" stroke-width="1" fill="none"></path></g></g><g><g transform="translate(772.8736156694672 206.34579467773438) rotate(0 -149.81527699693515 -84.50895328991055)"><path d="M-0.4728920102119446 -0.570224940776825 C-50.4562518595421 -28.55785670131115, -250.34469652114495 -140.96749591080683, -300.3049484603189 -169.1131965189974 M1.4797009550873192 1.7448030199762434 C-48.6024712845107 -26.465719359895637, -250.7269169664855 -141.89061294204765, -301.1102549489577 -170.76270959979735" stroke="#000000" stroke-width="1" fill="none"></path></g><g transform="translate(772.8736156694672 206.34579467773438) rotate(0 -149.81527699693515 -84.50895328991055)"><path d="M-272.4947915646402 -165.22417852018205 C-277.86473680121225 -166.5771906452591, -286.28921366462146 -168.10342458455085, -302.45702457986664 -172.67956320649824 M-272.4589076909391 -165.07371109459726 C-279.024867885534 -167.20144743125152, -287.8302885904013 -169.14494402028203, -300.43059829436135 -171.05633558041296" stroke="#000000" stroke-width="1" fill="none"></path></g><g transform="translate(772.8736156694672 206.34579467773438) rotate(0 -149.81527699693515 -84.50895328991055)"><path d="M-282.68071035688996 -147.40937959503188 C-285.16219760233855 -153.46575430648136, -290.8744947941655 -159.7354911622582, -302.45702457986664 -172.67956320649824 M-282.64482648318887 -147.2589121694471 C-286.2976911963053 -154.25235836443747, -292.27165518085746 -161.1479690598617, -300.43059829436135 -171.05633558041296" stroke="#000000" stroke-width="1" fill="none"></path></g></g><g><g transform="translate(549.8293151855469 256.6877136230469) rotate(0 -137.68287054395677 25.532362019012993)"><path d="M0.7191465497016907 0.32310065031051627 C-0.28949615557988473 0.5305206179618834, 2.88641924460729 -1.3673186103502917, -5.609534251689911 2.1688163638114926 C-14.105487747987112 5.704951337973277, -25.459579265117647 13.702833545207977, -50.256574428081514 21.53991049528122 C-75.05356959104537 29.376987445354462, -130.3846325437228 44.90402004321416, -154.39150522947313 49.191278064250945 C-178.39837791522345 53.47853608528773, -174.95700230995814 54.84278588692347, -194.29781054258348 47.263458621501925 C-213.6386187752088 39.68413135608038, -257.71824333270393 10.847288628419241, -270.4363546252251 3.7153144717216495 C-283.1544659177462 -3.416659684975942, -270.62287628253296 4.525139351685842, -270.6064782977104 4.471613681316375 M-0.3624402410443872 -0.5528754536155611 C-1.4635519337312628 -0.7559465272072703, 2.416958473458264 -3.398202744905526, -5.932046867376194 0.502344571268186 C-14.281052208210651 4.402891887441898, -25.807638380890708 15.101256063496692, -50.45647228605114 22.850408443426712 C-75.10530619121157 30.599560823356732, -129.59125222908023 42.79518815439505, -153.82505029833877 46.997258850848304 C-178.0588483675973 51.19932954730156, -176.6411074973798 54.94128385575178, -195.85926070160232 48.06283262214623 C-215.07741390582484 41.184381388540686, -256.69279002156424 13.194070653732243, -269.1339695236739 5.726551449215039 C-281.57514902578356 -1.740967755302166, -270.6777323984758 3.775566675777857, -270.50633771426044 3.2577173950430005" stroke="#000000" stroke-width="1" fill="none"></path></g></g><g><g transform="translate(274.4789123535156 259.6128234863281) rotate(0 5.824954593181616 11.772234267508622)"><path d="M-0.5706268429756164 0.07166272401809692 C-0.28353768587112427 1.0220471183458963, 0.27547936836878417 2.872512892882029, 2.4073398470878598 6.7198495984077455 C4.539200325806935 10.567186303933461, 10.590341810385386 20.51005320151647, 12.220536029338836 23.155682957172395 M1.3306553351227195 -0.9363182912115008 C1.4725459935609253 0.7173369828021773, 0.24525990340548232 3.888719649330402, 1.895753699177876 8.12490383557044 C3.54624749495027 12.361088021810477, 9.516682329808052 21.93326625299019, 11.233618109757082 24.480786826228723" stroke="#000000" stroke-width="1" fill="none"></path></g></g><g><g transform="translate(277.9034118652344 259.2263488769531) rotate(0 14.162292110919935 -0.07836564564146897)"><path d="M-0.26818560361862187 0.012727725505828902 C4.605445047219594 -0.16795452038447056, 23.74361427227656 -0.4246072252591451, 28.592769825458525 -0.042728435993194536 M1.7918782251421361 -1.0261941639427095 C6.5625296346688025 -0.5878337596698353, 23.237322675321874 0.6037161749756584, 27.63424425506033 0.8694628726597875" stroke="#000000" stroke-width="1" fill="none"></path></g></g><g transform="translate(10 205.44395446777344) rotate(0 57.67807006835935 24.908462524414062)"><path d="M-1.3407309651374817 1.5755818486213684 C34.492223966221886 0.6490350757293528, 71.8463580968 0.8184896503143138, 115.7826496958732 0.04292994737625122 M-0.6095870435237885 0.6238220632076263 C36.687555901434266 1.6722924248267184, 71.86522252803294 0.3500315681983004, 116.02206674218172 0.9431723058223724 M115.12769669294352 0.8065255284309387 C115.568551005589 15.993198005098844, 116.84437841342591 27.757324095048, 115.96494454145426 49.414346039295204 M116.12871804833406 -0.8916284143924713 C115.74006202487216 13.053344135554928, 116.01473071841464 26.310664097611703, 114.4322163164615 49.09019741415978 M115.80657356977457 48.68917208909989 C77.48254724988233 49.64506206492907, 44.33204387920884 50.37982425670153, 0.9026104807853699 51.727443039417274 M114.89604535698885 50.58181270956994 C88.63619019438461 49.246194602699426, 62.586936838420996 50.28678774997726, 0.9270521700382233 49.552224963903434 M-1.0560534596443176 49.06037455797196 C1.0070019360700555 33.24563747761377, 1.8952561017194696 11.91851026053682, 1.7434746623039246 -0.7345759272575378 M-0.22850355505943298 49.72181877493859 C-0.9457933115726792 31.10720058031921, -0.6072208094364487 14.193601672809201, -0.2957938611507416 -0.26547160744667053" stroke="#000000" stroke-width="1" fill="none"></path></g><g transform="translate(35.1253662109375 217.7657012939453) rotate(0 28.5 12.5)"><text x="0" y="18" font-family="Virgil, Segoe UI Emoji" font-size="20px" fill="#000000" text-anchor="start" style="white-space: pre;" direction="ltr">binary</text></g><g><g transform="translate(179.60940551757812 226.96090698242188) rotate(0 -26.215544153931546 0.8262475848198108)"><path d="M0.8081689953804017 -0.8744239926338195 C-7.849633459250131 -0.3680050015449524, -43.312599488099416 1.9536422610282895, -52.0179239153862 2.5269191622734066 M-0.22668101138435315 1.2808994658943265 C-9.081830688283468 1.4795523302908986, -44.58523131218118 0.8428620102163403, -53.239257303243505 0.7229539023991673" stroke="#000000" stroke-width="1" fill="none"></path></g><g transform="translate(179.60940551757812 226.96090698242188) rotate(0 -26.215544153931546 0.8262475848198108)"><path d="M-30.350144902132744 -8.580573449479473 C-35.07695192024521 -4.945567697518738, -42.172762314231946 -3.6974906622319796, -52.67105498648249 0.4169862734433263 M-28.44818116154551 -6.888851563083065 C-34.482380205098494 -4.822012110536583, -40.47712503097093 -2.8237008801495986, -52.49759447312914 1.5294263528939336" stroke="#000000" stroke-width="1" fill="none"></path></g><g transform="translate(179.60940551757812 226.96090698242188) rotate(0 -26.215544153931546 0.8262475848198108)"><path d="M-30.62361855116559 9.042682506128248 C-35.194870966747956 7.493300981531895, -42.21025980677597 3.5588325146299162, -52.67105498648249 0.4169862734433263 M-28.721654810578354 10.734404392524656 C-34.55871082574442 8.713281219335162, -40.49005649249099 6.626008289797414, -52.49759447312914 1.5294263528939336" stroke="#000000" stroke-width="1" fill="none"></path></g></g></svg>