<svg version="1.1" xmlns="http://www.w3.org/2000/svg" viewBox="0 0 758.2410888671875 465.4167175292969" width="1516.482177734375" height="930.8334350585938" filter="invert(93%) hue-rotate(180deg)">
  <!-- svg-source:excalidraw -->
  
  <defs>
    <style>
      @font-face {
        font-family: "Virgil";
        src: url("https://excalidraw.com/Virgil.woff2");
      }
      @font-face {
        font-family: "Cascadia";
        src: url("https://excalidraw.com/Cascadia.woff2");
      }
    </style>
  </defs>
  <g transform="translate(100.728271484375 10) rotate(0 21.4747314453125 14.796661376953125)"><path d="M-0.4488360285758972 -1.763935387134552 C14.331533380885231 -0.002720924693494442, 26.44912202862761 -1.4974013293565804, 41.167559921741486 1.7617890238761902 M-0.07646289467811584 -0.9403890073299408 C11.90242821528009 -0.8295467532592739, 22.79815892484767 0.4631883465332066, 42.52322182059288 0.9173084795475006 M41.79150706529617 0.3143555521965027 C41.30498581287533 7.988138380065175, 43.16834907886654 13.491694157152597, 41.903081238269806 27.704581916332245 M43.78168281912804 0.08816877007484436 C43.17844087297684 9.929874735979865, 44.1239717643953 19.40405750852551, 42.12315830588341 29.04471269249916 M43.19450885057449 30.206855475902557 C29.714847465736234 30.71440026853081, 18.60756156917923 28.269646621680224, -0.8999106287956238 30.0073601603508 M43.379910320043564 29.721188217401505 C25.964225278092634 29.970661443083443, 9.29155171075108 30.108550351469674, 0.7356375157833099 29.551847130060196 M1.6058724522590637 30.662465751171112 C0.3597187641522578 21.767948734049604, -1.5358291026690312 13.10554841614685, 1.3157132267951965 -1.2068293690681458 M0.8422430455684662 29.50737538933754 C-0.4760523384856606 18.365878867064566, 0.7131919318390465 7.811937276432218, -0.5226413309574127 -0.4196866452693939" stroke="#000000" stroke-width="1" fill="none"></path></g><g transform="translate(100.79498291015625 114.03823852539062) rotate(0 21.4747314453125 14.796661376953125)"><path d="M-0.6989920735359192 -1.046381652355194 C7.2527518586292 0.5652118250747298, 19.86629999001307 0.15312343090969077, 44.61390274763107 0.17633754014968872 M-0.1009887158870697 -0.8263045847415924 C12.31346680511124 -0.36009842086663413, 26.413133507750175 -0.6611190431200521, 43.07198587059975 0.3067663609981537 M41.736293494701385 -0.8999106287956238 C43.5457336482511 10.637972144831476, 44.067166524838015 17.362683531739826, 43.81035774946213 29.84905368089676 M43.44621530175209 0.7356375157833099 C43.01418690139102 9.381642359140642, 43.8730841105585 18.66030711460735, 43.75239911675453 30.12789425253868 M43.80433052778244 30.909035980701447 C27.56582977347643 30.45498113971473, 12.641476968389174 29.51445036273719, 1.6844860911369324 29.42142802476883 M42.296306282281876 29.070681422948837 C32.931581014922266 29.081378617878872, 23.082145054203284 29.440086999531704, 0.541363388299942 29.745439380407333 M-1.7468340992927551 28.164515793323517 C-1.7072186744865576 18.202578464462384, 0.02039095991285647 8.337625998882505, -0.9292395710945129 0.6766636967658997 M-0.7216142117977142 30.55370506644249 C0.7711203234104869 21.613630087108504, 1.1470463411717173 14.194886894883894, -0.4268439710140228 -0.18532481789588928" stroke="#000000" stroke-width="1" fill="none"></path></g><g transform="translate(101.79498291015625 202.03823852539062) rotate(0 21.4747314453125 14.796661376953125)"><path d="M-1.046381652355194 -1.8887408375740051 C15.393122186938854 1.7334212682225187, 29.78312651451415 1.8145465276219328, 43.12580043077469 -0.01059943437576294 M-0.8263045847415924 -0.5486100614070892 C13.69028038396864 0.7323538857671519, 27.035814327288247 0.1658970910283824, 43.256229251623154 -0.08098825812339783 M42.049552261829376 0.41403740644454956 C45.21594888891757 11.635800621018827, 43.302334615846284 22.261555534811855, 43.20519381761551 29.98089951276779 M43.68510040640831 -0.04147562384605408 C43.08681914562365 10.75741475761406, 42.91400286907336 20.682922570714798, 43.48403438925743 29.894133239984512 M44.2651761174202 28.386493384838104 C29.38750134035144 27.822524857123717, 13.74548330156394 31.46138937433563, -0.17189472913742065 28.062852561473846 M42.42682155966759 29.173636108636856 C32.2195345940032 28.641868123233216, 22.542368477948184 29.854158887088197, 0.15211662650108337 30.415000587701797 M-1.4288069605827332 27.65252846479416 C-0.2086053789019388 22.837897419277034, 1.236056715214272 15.579601822978656, 0.6766636967658997 -0.7666934132575989 M0.9603823125362396 30.20793119072914 C-0.42616772465296887 23.27097924819445, -0.10136437229701184 14.540722862300388, -0.18532481789588928 0.18571534752845764" stroke="#000000" stroke-width="1" fill="none"></path></g><g transform="translate(106.79498291015625 281.0382385253906) rotate(0 21.4747314453125 14.796661376953125)"><path d="M-1.8887408375740051 0.5910294651985168 C14.72632986603203 0.4036487207697792, 27.950470393856815 0.40104518988599014, 42.93886345624924 0.35470324754714966 M-0.5486100614070892 0.043725818395614624 C17.612061034523503 0.09759857712931991, 33.96868549959472 0.661659741985277, 42.8684746325016 0.6157921254634857 M43.36350029706955 1.9996464848518372 C43.705424606212816 11.632424172359789, 43.63084918201848 23.34851484814899, 43.33703964948654 30.31104975938797 M42.907987266778946 -0.06983867287635803 C43.913890020259075 10.707291155495296, 43.89940466106718 22.434463708476326, 43.25027337670326 30.016296237707138 M41.742633521556854 30.732848465442657 C30.888918854641815 30.07486357050984, 24.421617761945527 29.70397390681355, -1.5304701924324036 28.26666384935379 M42.529776245355606 28.899268954992294 C27.572600019016683 29.033505692154502, 14.078955286818381 29.52096773591671, 0.8216778337955475 28.804037898778915 M-1.940794289112091 29.512193024158478 C0.045288471776821104 20.804101800561146, -0.6707664446050148 9.964479815245063, -0.7666934132575989 -1.0577513575553894 M0.6146084368228912 29.35717663168907 C1.2040840773194759 18.903767133515245, -0.21329434827866864 7.8515722349507975, 0.18571534752845764 0.6655405461788177" stroke="#000000" stroke-width="1" fill="none"></path></g><g transform="translate(101.35418701171875 357.5978698730469) rotate(0 21.4747314453125 14.796661376953125)"><path d="M0.30423325300216675 1.643355667591095 C8.424672115062277 0.6290036293022422, 18.259649551341138 -1.6613196281440468, 41.00866860151291 -0.08112972974777222 M0.33833184838294983 -0.38334670662879944 C11.898154867588167 0.841661424275153, 24.13244688093401 1.15993401491236, 43.56407132744789 -0.23614612221717834 M42.57881325483322 0.3714306950569153 C44.30678060324228 12.424726602932243, 41.392971780610445 23.76836674908882, 42.659652411937714 28.151706039905548 M42.398017555475235 -0.8177730143070221 C42.33746609108954 8.691562065331345, 43.335370868616394 17.016174244579087, 42.4649740755558 28.833730548620224 M43.992004096508026 30.099871933460236 C30.882646633797414 28.343794920496077, 21.015171495305548 31.364873030237288, -0.06833106279373169 31.18459063768387 M42.398285537958145 29.71133217215538 C30.299646509710144 29.146869056544602, 17.26805460060277 29.86119877608806, -0.10662683844566345 28.60920414328575 M1.2293526530265808 27.675236999988556 C-0.12504985812300218 23.73170414963151, -1.9850256729423381 13.11367178755572, -0.403309166431427 -0.13677281141281128 M-0.3005126416683197 29.547596782445908 C0.7155956514683748 18.714090881845365, -0.8495488874110197 6.0220339558542015, -0.4852040708065033 0.7142980992794037" stroke="#000000" stroke-width="1" fill="none"></path></g><g transform="translate(195.24481201171875 113.00277709960938) rotate(0 21.4747314453125 14.796661376953125)"><path d="M-0.7666934132575989 -1.0577513575553894 C17.097207445165985 -1.588540135263829, 33.54674062780832 1.0839051619773818, 42.47717064619064 1.9810689091682434 M0.18571534752845764 0.6655405461788177 C13.573321506482172 -0.711767851247787, 26.60609978457651 -0.06530922545432988, 42.22865453362465 -0.14020076394081116 M41.313916862010956 -1.442347228527069 C43.50150238355802 10.523227299979226, 43.22453438123868 18.97055231676677, 41.43027848005295 29.042640030384064 M43.20273748040199 -0.1822768747806549 C42.348236045610044 12.563942063530522, 43.85877510048065 23.623484976451074, 43.74509683251381 29.63933166861534 M43.18548172712326 30.45857936143875 C25.016671709782532 30.323557200041034, 9.710837766660553 29.143341364469745, -1.9682372212409973 28.814416229724884 M41.99042001366615 29.634609073400497 C27.983279772420794 28.96862134674411, 10.638889775316056 29.65566835144382, -0.06838640570640564 30.51313289999962 M-0.09145194292068481 31.11658602952957 C1.6970196549588037 18.647940262166045, -0.48705283954803236 9.946201233083773, 1.4285961985588074 -0.23289936780929565 M-0.2783854901790619 29.647326320409775 C1.0648065676566876 18.264470366655768, -0.569734943878957 5.896110262511137, 0.2662321627140045 -0.7072736322879791" stroke="#000000" stroke-width="1" fill="none"></path></g><g transform="translate(19.63238525390625 113.53384399414062) rotate(0 21.4747314453125 14.796661376953125)"><path d="M0.17996376752853394 -0.9689776301383972 C8.26825251826449 -0.6695372717947612, 21.569126718219195 0.46097687310269975, 43.992004096508026 0.5065491795539856 M0.8235165178775787 -0.034165531396865845 C12.897603422155226 -0.26971980663562134, 25.1002608830735 0.03979423907971069, 42.398285537958145 0.11800941824913025 M43.17982453107834 -0.2132536768913269 C40.80391760183271 9.379381204573475, 44.17532606435712 20.795563449319527, 44.17881554365158 27.675236999988556 M42.43511262536049 -0.2016545832157135 C43.15686503659026 9.91998691007666, 43.38081351528899 17.137178940478407, 42.64895024895668 29.547596782445908 M42.20696800947189 28.622914612293243 C28.22205324554452 29.015318910831482, 12.352067680835894 27.500203172916443, 1.5628315806388855 29.036551773548126 M42.121080070734024 28.726223796606064 C30.09891376860105 28.92307343972927, 15.910396148108703 29.13841023935085, -0.28284963965415955 30.15836700797081 M-0.865558922290802 28.198584854602814 C-1.4208225518058133 22.801851464991884, -1.1010498314688992 15.888821688662208, -1.8964751362800598 -0.7513033747673035 M-0.8519795835018158 29.686847537755966 C0.613701442860529 17.32047053513179, -0.7039150198469906 7.063315944616988, 0.1746632158756256 -0.8319064676761627" stroke="#000000" stroke-width="1" fill="none"></path></g><g><g transform="translate(52.31207275390625 109.87771606445312) rotate(0 33.50379594143948 -34.14099339687266)"><path d="M0.4800701022148133 -0.9360959887504577 C11.867808266480763 -12.262751185894011, 56.65229325691858 -56.53010767698287, 67.73462370634078 -67.79256609678268 M-0.7270318234618753 1.1868496718164532 C10.634139128758884 -10.485698158824817, 56.09558605048495 -58.083669435167685, 67.26460493170656 -69.46883646556176" stroke="#000000" stroke-width="1" fill="none"></path></g></g><g><g transform="translate(136.964111328125 111.22024536132812) rotate(0 -3.218992135142912 -34.670247817272326)"><path d="M-0.47353838682174676 -0.5714702725410461 C-1.6956128954887388 -11.970375581582386, -5.8115533709526055 -57.89425647656123, -7.051852977275848 -69.43685075044633 M1.4787152307573708 1.742903889035806 C0.08793394171632851 -9.890996855779864, -6.771719632213935 -58.809853822176045, -7.916699501043185 -71.08339952358045" stroke="#000000" stroke-width="1" fill="none"></path></g></g><g><g transform="translate(217.15478515625 110.70880126953125) rotate(0 -38.17509011823216 -36.37845762968064)"><path d="M-0.11898690462112427 -0.4168729662895202 C-12.7414843360583 -12.511854986349743, -63.21776594718297 -60.38738205035528, -75.8737960934639 -72.34004229307175 M-1.6405937588866801 -1.681335218930617 C-14.310525101587798 -13.608647860769803, -63.78371929314298 -59.381344885810584, -76.23119333184324 -70.90213610240258" stroke="#000000" stroke-width="1" fill="none"></path></g></g><g><g transform="translate(123.11508178710938 201.46829223632812) rotate(0 0.4671663723136703 -28.982779681682587)"><path d="M0.8556903719902038 1.0299463391304016 C0.9083729942639668 -8.760561803976696, 1.0599844495455424 -49.257475586732234, 1.1064781069755554 -58.99550570249558 M-0.15421091205440463 0.5250642218347639 C-0.2814811219430219 -9.108605231527859, 0.3049078163846086 -47.90163489817021, 0.4417941292468459 -57.87579464503564" stroke="#000000" stroke-width="1" fill="none"></path></g></g><g><g transform="translate(127.60394287109375 281.022216796875) rotate(0 -1.8418970029381967 -23.915049386662446)"><path d="M0.0009130597114563876 0.8743053317070009 C-0.3793198148409525 -7.141722373167674, -2.3079474647839864 -38.706773515542345, -2.5228116869926454 -47.01258393526077 M-1.4577463132794948 0.2877116855140778 C-2.0105183656668912 -7.546969292048985, -3.657716902162259 -40.617285202130056, -3.6847070655878635 -48.70440410503186" stroke="#000000" stroke-width="1" fill="none"></path></g></g><g><g transform="translate(124.11529541015625 356.89117431640625) rotate(0 0.4950885891914538 -22.52521382570268)"><path d="M-1.1976266741752624 0.5628108859062195 C-0.9421946724255879 -7.127866884072621, 1.4935656984647112 -37.93434055248896, 2.187803852558136 -45.61323853731155 M0.3744805925432595 -0.1873173443321139 C0.36593420747357125 -7.778705271764969, 0.6237743265771616 -37.04365293640333, 0.9480020179692654 -44.42759597667493" stroke="#000000" stroke-width="1" fill="none"></path></g></g><g transform="translate(24.421875 284.5191345214844) rotate(0 21.4747314453125 14.796661376953125)"><path d="M-0.5403254628181458 1.9495843052864075 C17.262885348153215 -0.030427155672005046, 33.95250973334333 0.1768081806317059, 42.601121604442596 1.2177746891975403 M-0.8193448483943939 -0.5951768457889557 C11.389680010041777 -0.11111137416992278, 21.812236362618574 -0.03771183040771575, 43.48867002129555 0.0674045979976654 M41.56579750776291 1.0883038640022278 C44.48576365227642 6.063852386534019, 43.44158373589458 14.40787014734706, 41.7555233836174 28.93937999010086 M42.59410062432289 0.30804333090782166 C42.366849601277735 11.858966142673125, 43.23853367567959 22.061103554047804, 43.03239503502846 28.810865253210068 M41.607406318187714 31.180514633655548 C29.429690251425924 29.567041596020935, 16.66573150888289 29.304428299512146, -1.1721671223640442 27.91415911912918 M43.6746908724308 29.073232501745224 C28.44262255028952 28.55574316643491, 12.316663847288869 29.16582483910337, -0.9198211133480072 28.908360332250595 M-0.2299521565437317 29.57277423143387 C0.1560224539349474 20.94472284280109, -0.5530744546343885 10.720296942449568, 0.0900227427482605 1.4878152012825012 M0.03277745842933655 29.79401859641075 C-0.013842518861292785 22.662285104602958, -0.5958327608656873 17.007938087404543, -0.45245108008384705 -0.26608672738075256" stroke="#000000" stroke-width="1" fill="none"></path></g><g><g transform="translate(58.966583251953125 284.14300537109375) rotate(0 26.152568553057506 -26.450667560100555)"><path d="M0.5368625521659851 -0.3077443957328796 C9.529038989543915 -9.182561417420704, 44.211135470867156 -43.79781423012415, 52.945560443401334 -52.59359072446823 M-0.6404233372863382 -1.5149141488317401 C8.358036840194837 -10.297312646790719, 43.57542472057976 -42.91144135314661, 52.45440860831179 -51.383822332108394" stroke="#000000" stroke-width="1" fill="none"></path></g></g><g transform="translate(388.2687683105469 258.97442626953125) rotate(0 160.5 12.5)"><text x="0" y="18" font-family="Virgil, Segoe UI Emoji" font-size="20px" fill="#000000" text-anchor="start" style="white-space: pre;" direction="ltr">shallow (and possibly wide): good!</text></g><g transform="translate(10 430.4167175292969) rotate(0 111 12.5)"><text x="0" y="18" font-family="Virgil, Segoe UI Emoji" font-size="20px" fill="#000000" text-anchor="start" style="white-space: pre;" direction="ltr">narrow and deep: bad!</text></g><g transform="translate(526.1967163085938 21.2205810546875) rotate(0 21.4747314453125 14.796661376953125)"><path d="M-0.7657607197761536 -0.03570431470870972 C14.848279656520026 1.354476384080117, 29.253030482034955 1.073369435227578, 42.22645539045334 -0.2950407862663269 M0.4407879412174225 -0.7252894937992096 C8.325862763015175 1.2134589867611794, 17.425445641453553 0.28737732935151145, 43.93718782067299 0.4700983464717865 M41.33224457502365 -0.7453123927116394 C41.781256932134326 8.72123849721629, 42.07209898840874 17.18321175042547, 42.58953636884689 31.580190002918243 M42.54628053307533 -0.015581279993057251 C43.06099461082859 8.990972589265402, 43.95413254265232 18.632139495633236, 42.017686516046524 29.815945476293564 M41.410657584667206 29.92239886522293 C29.946553306557327 29.57131308343065, 15.175503227666194 27.92582625176561, -1.397053062915802 28.444922745227814 M42.62458196282387 29.26605686545372 C27.21308367225938 30.759870433733667, 10.221171563335517 29.84898653023025, 0.5641581118106842 30.069537967443466 M1.8425251841545105 30.1264870762825 C0.16589080905419906 24.423402931585407, -1.3761528768588869 17.37589740016956, 0.7261597514152527 0.45736056566238403 M-0.30770620703697205 30.307002872228622 C-0.062379243826962916 18.817574195080123, -0.07018125340948245 7.476430430040999, -0.10162004828453064 0.6986492574214935" stroke="#000000" stroke-width="1" fill="none"></path></g><g transform="translate(610.841796875 104.96539306640625) rotate(0 21.4747314453125 14.796661376953125)"><path d="M0.44286471605300903 1.5227085947990417 C14.437707398653584 -1.6344205694956326, 31.87133181953541 0.7373541039662814, 43.21380168199539 -0.10220175981521606 M0.791590541601181 0.8670336306095123 C10.499243693802418 -0.07826511001949257, 19.51045519561303 0.7949143257104879, 43.86673912405968 -0.15893587470054626 M41.71860820055008 1.4132553935050964 C42.36751590600552 10.739439038606907, 43.64958034387173 18.168833132927467, 44.83628588914871 28.42628449201584 M43.57539543509483 0.3898541033267975 C43.704331977939056 11.375826822246927, 43.77059040842001 23.42005759780768, 42.904053539037704 29.638512283563614 M43.9460728764534 28.95394867658615 C33.65694119990003 31.480708887193686, 24.341747511627908 30.6680353184681, 0.9593194127082825 28.900693595409393 M43.14225086569786 29.661667495965958 C33.2183977048342 29.258792556405897, 26.174274768579924 28.469313300729628, -0.1281205713748932 29.08522191643715 M-0.77903813123703 28.643689811229706 C0.37180344009340843 21.743749844061128, -0.6206682548528806 14.849364076111303, -1.6099688410758972 1.194072425365448 M0.49118027091026306 29.356179863214493 C1.1517340357298416 22.482268481291793, 0.3445183451170487 13.871693281009719, 0.7619160115718842 0.4477945864200592" stroke="#000000" stroke-width="1" fill="none"></path></g><g transform="translate(705.2916259765625 103.929931640625) rotate(0 21.4747314453125 14.796661376953125)"><path d="M1.5227085947990417 -1.33342045545578 C7.344104078997772 0.23397210287825143, 18.59878813741525 0.16923478293196237, 42.847261130809784 -1.3811480402946472 M0.8670336306095123 0.5803831517696381 C9.559824005289556 -0.6672497743632266, 20.317708374110225 0.5772923475239804, 42.790527015924454 0.006392329931259155 M44.362718284130096 -0.7489001154899597 C44.932915979924786 11.080692457252919, 43.46539621979295 22.981879268277048, 41.78242462873459 31.489383041858673 M43.3393169939518 0.6474216878414154 C42.70943077776081 10.666150939220643, 43.07012852403766 19.859532290209245, 42.994652420282364 28.93710884451866 M42.3100888133049 30.36723643541336 C32.08839670244706 31.332497437387136, 18.827336915807972 30.766661484628347, -0.6926291584968567 27.691212952136993 M43.01780763268471 28.662366718053818 C31.479760442573024 30.501154331549404, 19.399385371601966 29.54800358234286, -0.508100837469101 29.05779728293419 M-0.9496329426765442 29.86154681444168 C-0.7639557510818668 21.02687208890329, -0.3651425034012027 12.298947851646151, 1.194072425365448 -0.9299551844596863 M-0.2371428906917572 30.468846172094345 C0.37800517026718805 23.545739830727143, -0.7305963998622065 18.123457463969316, 0.4477945864200592 -0.5075189173221588" stroke="#000000" stroke-width="1" fill="none"></path></g><g transform="translate(529.67919921875 104.46099853515625) rotate(0 21.4747314453125 14.796661376953125)"><path d="M-1.33342045545578 -1.5388053059577942 C14.170067613882566 0.505971786076334, 27.94632179650216 -0.42919934124300196, 41.56831485033035 -1.397053062915802 M0.5803831517696381 -0.3248809278011322 C10.091414800918574 0.1759122205009771, 21.754637612176886 -0.5313221621284174, 42.95585522055626 0.5641581118106842 M42.20056277513504 1.8425251841545105 C43.30050181246852 10.66228130164727, 44.65416048861598 19.40751349335878, 44.84552317857742 30.319482505321503 M43.596884578466415 -0.30770620703697205 C43.84837724705407 9.607729307139563, 43.0892877771444 19.154665065456722, 42.29324898123741 29.49170270562172 M43.72337657213211 31.180642783641815 C28.589118353385857 30.230665348880795, 12.137782497920853 28.76338972937396, -1.9021098017692566 28.851081550121307 M42.01850685477257 29.414516121149063 C32.44688984870081 28.654390565101423, 20.16613587973843 29.11457561606578, -0.5355254709720612 29.24331346154213 M0.2682240605354309 29.03694885969162 C-0.6089760001343711 18.481946712528043, -1.4946972067994102 8.879764389583215, -0.9299551844596863 -1.866709053516388 M0.8755234181880951 29.984242111444473 C-0.07704883529868312 19.86850184243285, 0.6165594486978989 12.026839942561853, -0.5075189173221588 -0.4456580579280853" stroke="#000000" stroke-width="1" fill="none"></path></g><g transform="translate(434.9317626953125 106.6605224609375) rotate(0 21.4747314453125 14.796661376953125)"><path d="M1.0510991215705872 1.6056973338127136 C12.511045141852085 -1.0344930087107786, 22.741804150414833 -1.7675767336863646, 43.21668940782547 -0.7087882161140442 M-0.602889209985733 -0.06505522131919861 C8.48973488458796 -0.5432275240988383, 16.68865170377103 -0.8998454516501079, 43.79348739981651 -0.0929168164730072 M43.21661311388016 -0.3915732502937317 C41.034455408341834 11.394542053796432, 42.392081369645545 20.639336557105345, 43.93597537279129 29.53734940290451 M42.76239761710167 0.17218175530433655 C42.609223388263544 6.049461249439083, 43.46680261952575 12.338514425214454, 42.77751812338829 29.647463470697403 M41.25962954759598 27.648021399974823 C30.88594732889105 28.877544858272522, 23.068234348467374 29.655325391109436, 1.2065919041633606 28.991128623485565 M43.16659435629845 28.746302276849747 C30.64054958605775 29.588619346374543, 19.671969415426428 28.909186477417023, -0.6145803034305573 29.187495857477188 M1.400851547718048 30.098382651805878 C-0.181710039787813 18.907554626953242, 0.831067288703398 8.827749551319357, -0.03933209180831909 1.4005963206291199 M-0.453775554895401 29.393512398004532 C0.6877687302638696 19.952552448397, -0.9804699095676733 11.253444305430094, -0.4536086618900299 -0.14371809363365173" stroke="#000000" stroke-width="1" fill="none"></path></g><g transform="translate(353.7691650390625 106.1561279296875) rotate(0 21.4747314453125 14.796661376953125)"><path d="M0.6160004734992981 -1.0411437153816223 C11.770046614188324 -2.1190466306180316, 25.9038901181586 -1.0536074063748675, 41.03348284959793 1.7274395823478699 M-0.280588299036026 -0.27778276801109314 C14.687291764588009 -0.6064598274234595, 31.92259736532142 -0.06497594833410403, 43.761814922094345 -0.9550889432430267 M41.31709796190262 0.11252564191818237 C42.71425323710917 9.621495844115817, 43.97550468669413 23.0364108705322, 41.0598366856575 31.446782767772675 M42.3349731862545 -0.03251966834068298 C43.137193587362475 9.597553876888743, 42.72215929323406 18.900143291258793, 42.37600311636925 30.11655965447426 M41.30780726671219 29.234700858592987 C34.5986753601268 29.5947331498711, 25.52949706682266 28.573380381926764, -0.5128695368766785 28.86790817975998 M42.424014896154404 29.693181663751602 C31.399684342202818 28.649958049324706, 18.656451200360607 28.82370511200781, 0.3298824727535248 29.35016503930092 M-0.25366848707199097 28.76178330183029 C0.5518295815095735 18.078050085290485, -0.24661135171796555 10.077605442969432, 0.18499308824539185 1.801362693309784 M0.954310268163681 29.104277282953262 C-0.5796411071293369 18.343142413235, -0.3193213973515049 7.022101537657363, 0.5839022099971771 -0.45642122626304626" stroke="#000000" stroke-width="1" fill="none"></path></g><g transform="translate(434.48046875 187.82366943359375) rotate(0 21.4747314453125 14.796661376953125)"><path d="M-1.5754263997077942 0.5922597050666809 C13.96000267388663 1.137507696488974, 24.688485946699803 1.570145864823935, 41.5314137339592 1.3491585850715637 M0.7520233690738678 0.9200485646724701 C15.199214858080815 -0.03118550829669403, 30.815992528728387 -0.106131911800112, 42.957712799310684 0.2313421666622162 M44.14599198102951 1.6557229161262512 C42.29047760585445 6.354564311311151, 42.92030891994136 11.2089843197773, 41.54525154829025 30.907616913318634 M43.39834848046303 0.15630707144737244 C41.93192042917619 7.085907820350804, 42.96318091959367 13.41379348136361, 42.72162213921547 29.492411464452744 M41.781411826610565 30.60041171312332 C27.342447867101146 27.650866141694497, 10.748881856810478 27.867561927216958, 1.5180127024650574 29.584483444690704 M41.95693555474281 29.3062923848629 C27.991944140350824 29.491067706975954, 12.02661703259946 29.419600307378786, 0.7034575045108795 30.190522998571396 M1.0788800120353699 28.210383713245392 C0.07355100914830476 22.143515157359616, -1.4029409189522812 15.14238146475509, -0.7158301472663879 -1.8370386958122253 M0.7568861544132233 29.244882434606552 C0.4107837016435769 19.444963875499706, -0.8846769993451926 10.932002103502235, 0.5374962389469147 -0.5190497934818268" stroke="#000000" stroke-width="1" fill="none"></path></g><g><g transform="translate(387.1341552734375 104.148193359375) rotate(0 72.77711543288552 -27.608903052401715)"><path d="M0.7906229138374328 -0.6413261532783509 C24.940099918842314 -10.11613885164261, 121.71977711915969 -47.83528748750687, 145.80766965150832 -56.854179775714876 M-0.2534387857373803 1.6363736709114165 C23.671031084889545 -7.737822585785761, 120.83173487179911 -46.23260982968844, 144.93588311576283 -55.942046746099365" stroke="#000000" stroke-width="1" fill="none"></path></g></g><g><g transform="translate(639.6029663085938 104.98617553710938) rotate(0 -37.192176115843495 -25.61134696204681)"><path d="M-0.4397874712944031 -0.9810268521308898 C-13.086324870586395 -9.60384776989619, -63.295087611675264 -43.65420164664586, -75.9145376086235 -52.34102402925491 M1.5301853769365699 1.1183301051612942 C-10.726661585932598 -7.237434246425207, -61.04290817744099 -41.87073172388909, -73.59485215759837 -50.74461759456433" stroke="#000000" stroke-width="1" fill="none"></path></g></g><g><g transform="translate(730.8633422851562 103.47503662109375) rotate(0 -79.4485056042671 -32.13105430279391)"><path d="M0.10049933195114136 0.803252613544464 C-26.23195293347041 -9.660248490174613, -132.5369943102201 -52.55333333412806, -158.9975105404854 -63.19248141050339 M-1.3058772481139749 0.17935629031620914 C-27.150501583979153 -10.612157197877144, -130.22060190346403 -54.19546681243615, -156.59692909157835 -65.06536121913231" stroke="#000000" stroke-width="1" fill="none"></path></g></g><g><g transform="translate(542.8545532226562 105.13092041015625) rotate(0 1.0001141902478707 -25.808175098896044)"><path d="M-0.025154292583465576 0.17714270353317252 C0.6785158276557922 -8.594668082396188, 2.788844883441925 -43.02955565055211, 3.497727406024933 -51.79349290132522 M-1.4974990255292506 -0.7754613224510103 C-0.918623332148418 -9.429050991420324, 1.508369822436944 -41.88122542200921, 2.3687891235295684 -50.333327235067266" stroke="#000000" stroke-width="1" fill="none"></path></g></g><g><g transform="translate(477.939453125 105.00228881835938) rotate(0 28.230656135645688 -26.802293002605424)"><path d="M-0.10694657564163212 -0.018152797222137362 C9.42684668302536 -9.011158295472462, 48.2672683596611 -44.72598386208217, 58.083544528484346 -53.58643320798874 M-1.6222322571929544 -1.0732869611028582 C7.654274490112438 -9.923482395096993, 47.021431962782515 -43.76469758826929, 57.002319842213765 -52.22326417514123" stroke="#000000" stroke-width="1" fill="none"></path></g></g><g><g transform="translate(458.22900390625 188.884033203125) rotate(0 0.2941808530362664 -24.849145924639885)"><path d="M-0.6386136889457702 -0.9213791012763977 C-0.6912729144096375 -9.512067043781279, 0.3067880749702453 -42.81891099214553, 0.508950626850128 -50.90758477449417 M1.226975395018235 1.209292925214395 C1.0236883076373489 -7.288917613709346, 0.18943054669536674 -40.94415834882297, 0.03834136390127263 -49.707316578710454" stroke="#000000" stroke-width="1" fill="none"></path></g></g></svg>