<svg version="1.1" xmlns="http://www.w3.org/2000/svg" viewBox="0 0 965.8083190917969 495.6365203857422" width="1931.6166381835938" height="991.2730407714844">
  <!-- svg-source:excalidraw -->
  
  <defs>
    <style>
      @font-face {
        font-family: "Virgil";
        src: url("https://excalidraw.com/Virgil.woff2");
      }
      @font-face {
        font-family: "Cascadia";
        src: url("https://excalidraw.com/Cascadia.woff2");
      }
    </style>
  </defs>
  <g stroke-linecap="round" transform="translate(81.61981201171875 10) rotate(0 100.15206909179688 94.87806701660156)"><path d="M101.54 1.56 C132.1 28.41, 159.12 53.73, 199.86 94.24 M100.1 0.41 C121.37 19.78, 140.59 38.32, 200 94.38 M201.66 95.43 C167.79 128.83, 131.15 161.37, 99.48 189.88 M200.47 95.39 C171.64 125.35, 140.39 154.69, 100.54 190.66 M102.66 188.17 C70.32 159.87, 37.24 130.29, 0.84 94.36 M100.57 189.08 C68.89 156.88, 35.25 126.5, 0.36 95.05 M0.02 96.92 C33.49 63.94, 68.94 31.36, 99.87 -0.37 M0.48 95.84 C36.23 60.92, 73.15 25.61, 101.64 0.63" stroke="#000000" stroke-width="1" fill="none"></path></g><g stroke-linecap="round" transform="translate(374.4891052246094 11.971054077148438) rotate(0 100.15206909179688 94.87806701660156)"><path d="M102.72 -1.35 C137.64 35.45, 175.47 71.37, 201.6 94.09 M100.06 -0.58 C132.87 30.78, 164.88 61.09, 200.23 95.03 M201.77 93.18 C178.34 114.67, 160.33 133.81, 100.65 191.19 M200.68 94.69 C177.11 115.78, 155.03 136.52, 100.17 189.74 M102.88 189.14 C66.75 159.58, 34.2 125.16, 1.64 94.91 M100.74 189.52 C71.99 161.78, 42.04 134.36, -0.03 95.42 M-0.08 93.51 C40.14 58.16, 76.86 24.27, 101.39 0.56 M0.51 95.97 C22.81 74.25, 46.93 52.2, 100.75 0.1" stroke="#000000" stroke-width="1" fill="none"></path></g><g transform="translate(147.0711669921875 67.9454345703125) rotate(0 34 37.5)"><text x="34" y="18" font-family="Virgil, Segoe UI Emoji" font-size="20px" fill="#000000" text-anchor="middle" style="white-space: pre;" direction="ltr">Is the</text><text x="34" y="43" font-family="Virgil, Segoe UI Emoji" font-size="20px" fill="#000000" text-anchor="middle" style="white-space: pre;" direction="ltr">channel</text><text x="34" y="68" font-family="Virgil, Segoe UI Emoji" font-size="20px" fill="#000000" text-anchor="middle" style="white-space: pre;" direction="ltr">nil?</text></g><g transform="translate(442.9483642578125 66.40237426757812) rotate(0 34 37.5)"><text x="34" y="18" font-family="Virgil, Segoe UI Emoji" font-size="20px" fill="#000000" text-anchor="middle" style="white-space: pre;" direction="ltr">Is the</text><text x="34" y="43" font-family="Virgil, Segoe UI Emoji" font-size="20px" fill="#000000" text-anchor="middle" style="white-space: pre;" direction="ltr">channel</text><text x="34" y="68" font-family="Virgil, Segoe UI Emoji" font-size="20px" fill="#000000" text-anchor="middle" style="white-space: pre;" direction="ltr">empty?</text></g><g stroke-linecap="round" transform="translate(10 97.57708740234375) rotate(0 11.31219482421875 9.465011596679688)"><path d="M13.38 -0.05 C15.59 0.39, 18.15 1.97, 19.77 3.6 C21.39 5.22, 23.2 7.56, 23.11 9.72 C23.02 11.88, 20.87 14.95, 19.24 16.57 C17.6 18.19, 15.49 19.19, 13.29 19.42 C11.09 19.65, 8.04 19.03, 6.05 17.94 C4.05 16.86, 2.12 14.91, 1.32 12.91 C0.52 10.92, 0.44 8.03, 1.26 5.98 C2.08 3.94, 3.94 1.45, 6.25 0.63 C8.56 -0.2, 13.33 0.95, 15.11 1.04 C16.89 1.14, 16.94 1.01, 16.92 1.18 M15.28 0.07 C17.32 0.85, 20.08 4.04, 21.06 5.87 C22.04 7.7, 21.56 8.9, 21.14 11.02 C20.71 13.15, 20.51 17.07, 18.53 18.62 C16.55 20.17, 11.94 20.61, 9.26 20.31 C6.58 20.01, 3.87 18.42, 2.45 16.81 C1.04 15.2, 0.85 12.79, 0.76 10.66 C0.68 8.54, 0.87 6.01, 1.97 4.04 C3.07 2.06, 4.97 -0.46, 7.37 -1.2 C9.76 -1.93, 14.83 -0.75, 16.35 -0.4 C17.86 -0.04, 16.67 0.71, 16.45 0.95" stroke="#000000" stroke-width="1" fill="none"></path></g><g stroke-linecap="round"><g transform="translate(38.91217041015625 107.42623901367188) rotate(0 23.451742122001008 -1.5988378740847224)"><path d="M-1.19 -0.26 C6.61 -0.83, 38.08 -2.57, 45.89 -2.94 M0.38 -1.44 C8.63 -1.84, 40.17 -0.86, 48.1 -1.38" stroke="#000000" stroke-width="1" fill="none"></path></g><g transform="translate(38.91217041015625 107.42623901367188) rotate(0 23.451742122001008 -1.5988378740847224)"><path d="M25.69 5.29 C31.11 3.29, 36.81 4.39, 48.3 -0.34 M26.62 6.05 C29.87 6.16, 35.28 2.77, 48.98 -0.81" stroke="#000000" stroke-width="1" fill="none"></path></g><g transform="translate(38.91217041015625 107.42623901367188) rotate(0 23.451742122001008 -1.5988378740847224)"><path d="M25.51 -10.77 C31.03 -9.15, 36.78 -4.44, 48.3 -0.34 M26.44 -10 C29.87 -6.48, 35.32 -6.46, 48.98 -0.81" stroke="#000000" stroke-width="1" fill="none"></path></g></g><g stroke-linecap="round"><g transform="translate(282.0575071210974 106.09061017977069) rotate(0 48.4919478549063 -1.364354223990773)"><path d="M1.18 -0.42 C16.73 -0.61, 78.65 -2.23, 94.5 -2.3 M0.34 -1.69 C16.15 -1.66, 80.73 -1.06, 96.64 -1.27" stroke="#000000" stroke-width="1" fill="none"></path></g><g transform="translate(282.0575071210974 106.09061017977069) rotate(0 48.4919478549063 -1.364354223990773)"><path d="M67.75 7.2 C78.18 5.78, 91.77 -0.02, 97.88 0.54 M69.12 10 C77.55 5.22, 84.52 2.79, 97.35 -1.48" stroke="#000000" stroke-width="1" fill="none"></path></g><g transform="translate(282.0575071210974 106.09061017977069) rotate(0 48.4919478549063 -1.364354223990773)"><path d="M67.74 -13.32 C77.97 -6.58, 91.57 -4.21, 97.88 0.54 M69.11 -10.52 C77.44 -9.12, 84.41 -5.38, 97.35 -1.48" stroke="#000000" stroke-width="1" fill="none"></path></g></g><g transform="translate(97.81494140625 284.6648864746094) rotate(0 94.5 12.5)"><text x="94.5" y="18" font-family="Virgil, Segoe UI Emoji" font-size="20px" fill="#000000" text-anchor="middle" style="white-space: pre;" direction="ltr">The receive blocks.</text></g><g stroke-linecap="round" transform="translate(89.16543579101562 265.70278930664074) rotate(0 100.63185119628906 32.54321289062494)"><path d="M-1.12 -1.59 C55.89 1.18, 115.62 2.83, 202.2 -1.5 M-0.85 0.85 C77.48 -1.12, 156.83 -0.87, 202.08 0.23 M201.05 1.16 C203.2 19.75, 202.93 40.64, 200.31 64.09 M200.63 0.85 C201.56 17.08, 201.31 33.01, 202.23 64.8 M201.58 64.99 C148.76 63.35, 93.82 64.18, 1.2 63.6 M200.63 64.84 C150.43 64.28, 100.53 63.94, 0.68 64.72 M-1.52 65.39 C1.08 51.91, -2.36 37.87, -1.01 1.13 M-0.1 65.38 C0.25 49.68, 0 34.58, 0.02 0.49" stroke="#000000" stroke-width="1" fill="none"></path></g><g transform="translate(311.36956787109375 67.1448974609375) rotate(0 10 12.5)"><text x="10" y="18" font-family="Virgil, Segoe UI Emoji" font-size="20px" fill="#000000" text-anchor="middle" style="white-space: pre;" direction="ltr">no</text></g><g transform="translate(192.20965576171875 204.06561279296875) rotate(0 15.5 12.5)"><text x="15.5" y="18" font-family="Virgil, Segoe UI Emoji" font-size="20px" fill="#000000" text-anchor="middle" style="white-space: pre;" direction="ltr">yes</text></g><g stroke-linecap="round" transform="translate(660.1880493164062 49.38673400878906) rotate(0 138.3883056640625 49.9456787109375)"><path d="M1.03 0.91 C97.58 -0.93, 192.32 -0.88, 277.65 1.2 M0.45 -0.09 C101.27 0.17, 202.58 1.13, 276.89 0.01 M276.16 0 C276.67 19.22, 277.16 41.78, 278.65 101.78 M277.57 -0.15 C277.6 27.94, 277.87 54.86, 276.97 100.25 M277.65 99.1 C171.04 99.3, 62.4 96.95, -0.11 101.12 M277.45 100.12 C195.23 100.13, 112.82 99.64, 0.22 100.64 M0.46 100.35 C-2.64 70.3, -2.49 42.79, 0.52 0.55 M-0.12 99.93 C-0.71 80.77, -0.09 60.39, 0.09 -0.95" stroke="#000000" stroke-width="1" fill="none"></path></g><g transform="translate(671.5823364257812 61.31910705566406) rotate(0 127.5 37.5)"><text x="127.5" y="18" font-family="Virgil, Segoe UI Emoji" font-size="20px" fill="#000000" text-anchor="middle" style="white-space: pre;" direction="ltr">The receive proceeds by</text><text x="127.5" y="43" font-family="Virgil, Segoe UI Emoji" font-size="20px" fill="#000000" text-anchor="middle" style="white-space: pre;" direction="ltr">removing the next element</text><text x="127.5" y="68" font-family="Virgil, Segoe UI Emoji" font-size="20px" fill="#000000" text-anchor="middle" style="white-space: pre;" direction="ltr">from the channel.</text></g><g transform="translate(487.7840576171875 206.55624389648438) rotate(0 15.5 12.5)"><text x="15.5" y="18" font-family="Virgil, Segoe UI Emoji" font-size="20px" fill="#000000" text-anchor="middle" style="white-space: pre;" direction="ltr">yes</text></g><g transform="translate(600.7687377929688 66.22621154785156) rotate(0 10 12.5)"><text x="10" y="18" font-family="Virgil, Segoe UI Emoji" font-size="20px" fill="#000000" text-anchor="middle" style="white-space: pre;" direction="ltr">no</text></g><g stroke-linecap="round"><g transform="translate(475.59131456654154 203.2771389723123) rotate(0 1.6975558423262669 46.94692664426381)"><path d="M0.91 -0.79 C0.92 34.03, 0.68 70.49, 3.03 93.62 M0.37 -0.62 C1.6 32.57, 2.46 64.79, 1.78 94.69" stroke="#000000" stroke-width="1" fill="none"></path></g><g transform="translate(475.59131456654154 203.2771389723123) rotate(0 1.6975558423262669 46.94692664426381)"><path d="M-7.33 65.62 C-4.57 75.11, -1.86 86.3, 2.53 93.67 M-7.88 65.79 C-4.08 76.5, -0.59 86.2, 1.29 94.73" stroke="#000000" stroke-width="1" fill="none"></path></g><g transform="translate(475.59131456654154 203.2771389723123) rotate(0 1.6975558423262669 46.94692664426381)"><path d="M13.19 65.79 C8.14 75.36, 3.03 86.48, 2.53 93.67 M12.64 65.96 C9.47 76.5, 6 86.15, 1.29 94.73" stroke="#000000" stroke-width="1" fill="none"></path></g></g><g stroke-linecap="round" transform="translate(375.84429931640625 295.88038635253906) rotate(0 100.15206909179688 94.87806701660156)"><path d="M101.98 -0.15 C133.29 31.43, 168.14 65.83, 200.14 93.27 M100.29 -0.89 C134.69 32.25, 169.7 64.11, 199.76 95.57 M201.27 96.62 C177.4 118.47, 153.01 139.37, 100.26 189.26 M199.95 94.31 C177 116.55, 154.09 138.11, 101.94 190.28 M100.01 188.82 C72.91 166.38, 47.65 142.94, -1.92 96.94 M101.5 190.33 C62.59 152.54, 22.18 115.52, 0.66 94.77 M-1.42 96.83 C41 58.84, 77.47 23.78, 102.31 1.65 M-0.89 95.85 C25.22 69.46, 52.48 44.81, 101.23 0.4" stroke="#000000" stroke-width="1" fill="none"></path></g><g stroke-linecap="round"><g transform="translate(377.0912170410156 393.10498046875) rotate(0 -94.70652615930885 -1.1479575196281075)"><path d="M1.16 -0.46 C-72.65 -1.08, -142.64 -0.14, -190.39 -2.94 M0.11 0.64 C-63.63 -1.02, -126.25 -0.07, -190.57 -1.59" stroke="#000000" stroke-width="1" fill="none"></path></g></g><g stroke-linecap="round"><g transform="translate(186.68283081054688 390.38336181640625) rotate(0 -0.7837898125872016 -28.101277039386332)"><path d="M-1.73 0.58 C-1.14 -14.46, 1.14 -33.67, -0.89 -55.89 M-0.15 -0.71 C-1.16 -11.82, -1.29 -23.77, 0.16 -56.78" stroke="#000000" stroke-width="1" fill="none"></path></g><g transform="translate(186.68283081054688 390.38336181640625) rotate(0 -0.7837898125872016 -28.101277039386332)"><path d="M7.18 -29.13 C5.66 -35.53, 5.55 -46.18, -0.32 -55.76 M8.76 -30.41 C6.2 -35.45, 4.39 -41.37, 0.73 -56.65" stroke="#000000" stroke-width="1" fill="none"></path></g><g transform="translate(186.68283081054688 390.38336181640625) rotate(0 -0.7837898125872016 -28.101277039386332)"><path d="M-12.27 -29.84 C-8.2 -36.21, -2.73 -46.66, -0.32 -55.76 M-10.69 -31.13 C-9.31 -36.1, -7.19 -41.87, 0.73 -56.65" stroke="#000000" stroke-width="1" fill="none"></path></g></g><g transform="translate(420.8348693847656 338.61346435546875) rotate(0 55 50)"><text x="55" y="18" font-family="Virgil, Segoe UI Emoji" font-size="20px" fill="#000000" text-anchor="middle" style="white-space: pre;" direction="ltr">Has</text><text x="55" y="43" font-family="Virgil, Segoe UI Emoji" font-size="20px" fill="#000000" text-anchor="middle" style="white-space: pre;" direction="ltr">the channel</text><text x="55" y="68" font-family="Virgil, Segoe UI Emoji" font-size="20px" fill="#000000" text-anchor="middle" style="white-space: pre;" direction="ltr">been closed</text><text x="55" y="93" font-family="Virgil, Segoe UI Emoji" font-size="20px" fill="#000000" text-anchor="middle" style="white-space: pre;" direction="ltr">yet?</text></g><g transform="translate(330.5232238769531 358.0263671875) rotate(0 10 12.5)"><text x="10" y="18" font-family="Virgil, Segoe UI Emoji" font-size="20px" fill="#000000" text-anchor="middle" style="white-space: pre;" direction="ltr">no</text></g><g stroke-linecap="round" transform="translate(663.1077575683594 340.7825012207031) rotate(0 146.35028076171875 49.9456787109375)"><path d="M1.18 -0.95 C66.19 -0.88, 132.7 0.08, 293.58 0.15 M-0.5 0.68 C92.19 -2.13, 184.52 -1.32, 292.19 0.38 M294.35 -1.25 C291.98 19.75, 292.76 40.51, 292.16 98.75 M292.8 -0.88 C293.97 31.44, 293.1 65.27, 292.44 99.74 M292.98 98.52 C219.67 97.23, 149.27 97.48, 1.01 101.06 M292.49 99.72 C232.21 100.6, 170.8 101.5, 0.36 99.33 M0.28 98.91 C0.46 64.76, -0.56 28.78, -1.96 0.76 M-0.83 98.98 C-0.07 76.46, 1.17 53.86, -0.46 -0.14" stroke="#000000" stroke-width="1" fill="none"></path></g><g transform="translate(677.6476745605469 349.49090576171875) rotate(0 132.5 37.5)"><text x="132.5" y="18" font-family="Virgil, Segoe UI Emoji" font-size="20px" fill="#000000" text-anchor="middle" style="white-space: pre;" direction="ltr">The receive proceeds by</text><text x="132.5" y="43" font-family="Virgil, Segoe UI Emoji" font-size="20px" fill="#000000" text-anchor="middle" style="white-space: pre;" direction="ltr">yielding the zero value of</text><text x="132.5" y="68" font-family="Virgil, Segoe UI Emoji" font-size="20px" fill="#000000" text-anchor="middle" style="white-space: pre;" direction="ltr">the channel's element type.</text></g><g stroke-linecap="round"><g transform="translate(573.7699034628924 105.87980826371347) rotate(0 41.92115250009573 -0.6688778397859494)"><path d="M1.12 -1.14 C14.74 -1.66, 67.96 -1.99, 81.45 -2.21 M0.25 0.87 C14.25 0.45, 70.13 -0.5, 83.59 -0.9" stroke="#000000" stroke-width="1" fill="none"></path></g><g transform="translate(573.7699034628924 105.87980826371347) rotate(0 41.92115250009573 -0.6688778397859494)"><path d="M53.74 8.17 C62.58 5.89, 69.89 2.19, 82.84 -2.31 M54.77 10.85 C63.36 6.19, 72.12 2.91, 82.6 -0.26" stroke="#000000" stroke-width="1" fill="none"></path></g><g transform="translate(573.7699034628924 105.87980826371347) rotate(0 41.92115250009573 -0.6688778397859494)"><path d="M53.28 -12.34 C62.4 -8.95, 69.84 -6.97, 82.84 -2.31 M54.3 -9.66 C63.09 -8.52, 71.98 -6, 82.6 -0.26" stroke="#000000" stroke-width="1" fill="none"></path></g></g><g stroke-linecap="round"><g transform="translate(575.7303508594632 394.8374285623431) rotate(0 43.463899698108435 -0.5413579503074288)"><path d="M-1.05 -1.39 C26.04 0.9, 47.97 0.04, 87.9 0.22 M0.2 0.31 C32.67 -0.3, 63.22 0.42, 87.98 -1.31" stroke="#000000" stroke-width="1" fill="none"></path></g><g transform="translate(575.7303508594632 394.8374285623431) rotate(0 43.463899698108435 -0.5413579503074288)"><path d="M59.19 8.73 C69.44 7.53, 74.5 3.67, 87.88 -0.35 M60.45 10.43 C71.05 5.97, 79.78 2.82, 87.95 -1.88" stroke="#000000" stroke-width="1" fill="none"></path></g><g transform="translate(575.7303508594632 394.8374285623431) rotate(0 43.463899698108435 -0.5413579503074288)"><path d="M58.33 -11.77 C68.78 -7.22, 74.08 -5.34, 87.88 -0.35 M59.59 -10.07 C70.58 -7.11, 79.62 -2.84, 87.95 -1.88" stroke="#000000" stroke-width="1" fill="none"></path></g></g><g transform="translate(593.8003234863281 355.7880859375) rotate(0 15.5 12.5)"><text x="15.5" y="18" font-family="Virgil, Segoe UI Emoji" font-size="20px" fill="#000000" text-anchor="middle" style="white-space: pre;" direction="ltr">yes</text></g><g stroke-linecap="round"><g transform="translate(182.65927124023438 201.3175048828125) rotate(0 -0.09162965330307316 30.96624136157334)"><path d="M0.81 -0.27 C0.23 21.6, -1.45 38.97, -0.89 61.4 M-0.64 -0.67 C-0.7 15.21, 0.62 28.48, 0.65 62.6" stroke="#000000" stroke-width="1" fill="none"></path></g><g transform="translate(182.65927124023438 201.3175048828125) rotate(0 -0.09162965330307316 30.96624136157334)"><path d="M-9.13 34.26 C-6.39 45.23, -5.01 51.78, -1.24 61.92 M-10.59 33.86 C-8.31 41.61, -4.72 46.82, 0.3 63.13" stroke="#000000" stroke-width="1" fill="none"></path></g><g transform="translate(182.65927124023438 201.3175048828125) rotate(0 -0.09162965330307316 30.96624136157334)"><path d="M11.39 34.02 C7.61 45.26, 2.45 51.89, -1.24 61.92 M9.93 33.62 C7.34 41.57, 6.08 46.84, 0.3 63.13" stroke="#000000" stroke-width="1" fill="none"></path></g></g></svg>