<svg version="1.1" xmlns="http://www.w3.org/2000/svg" viewBox="0 0 873.064208984375 519.0304260253906" width="1746.12841796875" height="1038.0608520507812">
  <!-- svg-source:excalidraw -->
  
  <defs>
    <style>
      @font-face {
        font-family: "Virgil";
        src: url("https://excalidraw.com/Virgil.woff2");
      }
      @font-face {
        font-family: "Cascadia";
        src: url("https://excalidraw.com/Cascadia.woff2");
      }
    </style>
  </defs>
  <g stroke-linecap="round" transform="translate(81.61981201171875 179.546875) rotate(0 100.15206909179688 94.87806701660156)"><path d="M101.54 1.56 C132.1 28.41, 159.12 53.73, 199.86 94.24 M100.1 0.41 C121.37 19.78, 140.59 38.32, 200 94.38 M201.66 95.43 C167.79 128.83, 131.15 161.37, 99.48 189.88 M200.47 95.39 C171.64 125.35, 140.39 154.69, 100.54 190.66 M102.66 188.17 C70.32 159.87, 37.24 130.29, 0.84 94.36 M100.57 189.08 C68.89 156.88, 35.25 126.5, 0.36 95.05 M0.02 96.92 C33.49 63.94, 68.94 31.36, 99.87 -0.37 M0.48 95.84 C36.23 60.92, 73.15 25.61, 101.64 0.63" stroke="#000000" stroke-width="1" fill="none"></path></g><g stroke-linecap="round" transform="translate(374.4891052246094 181.51792907714844) rotate(0 100.15206909179688 94.87806701660156)"><path d="M102.72 -1.35 C137.64 35.45, 175.47 71.37, 201.6 94.09 M100.06 -0.58 C132.87 30.78, 164.88 61.09, 200.23 95.03 M201.77 93.18 C178.34 114.67, 160.33 133.81, 100.65 191.19 M200.68 94.69 C177.11 115.78, 155.03 136.52, 100.17 189.74 M102.88 189.14 C66.75 159.58, 34.2 125.16, 1.64 94.91 M100.74 189.52 C71.99 161.78, 42.04 134.36, -0.03 95.42 M-0.08 93.51 C40.14 58.16, 76.86 24.27, 101.39 0.56 M0.51 95.97 C22.81 74.25, 46.93 52.2, 100.75 0.1" stroke="#000000" stroke-width="1" fill="none"></path></g><g transform="translate(147.0711669921875 237.4923095703125) rotate(0 34 37.5)"><text x="34" y="18" font-family="Virgil, Segoe UI Emoji" font-size="20px" fill="#000000" text-anchor="middle" style="white-space: pre;" direction="ltr">Is the</text><text x="34" y="43" font-family="Virgil, Segoe UI Emoji" font-size="20px" fill="#000000" text-anchor="middle" style="white-space: pre;" direction="ltr">channel</text><text x="34" y="68" font-family="Virgil, Segoe UI Emoji" font-size="20px" fill="#000000" text-anchor="middle" style="white-space: pre;" direction="ltr">nil?</text></g><g transform="translate(418.8431396484375 219.94805908203125) rotate(0 55 50)"><text x="55" y="18" font-family="Virgil, Segoe UI Emoji" font-size="20px" fill="#000000" text-anchor="middle" style="white-space: pre;" direction="ltr">Has</text><text x="55" y="43" font-family="Virgil, Segoe UI Emoji" font-size="20px" fill="#000000" text-anchor="middle" style="white-space: pre;" direction="ltr">the channel</text><text x="55" y="68" font-family="Virgil, Segoe UI Emoji" font-size="20px" fill="#000000" text-anchor="middle" style="white-space: pre;" direction="ltr">been closed</text><text x="55" y="93" font-family="Virgil, Segoe UI Emoji" font-size="20px" fill="#000000" text-anchor="middle" style="white-space: pre;" direction="ltr">yet?</text></g><g stroke-linecap="round" transform="translate(10 267.12396240234375) rotate(0 11.31219482421875 9.465011596679688)"><path d="M13.38 -0.05 C15.59 0.39, 18.15 1.97, 19.77 3.6 C21.39 5.22, 23.2 7.56, 23.11 9.72 C23.02 11.88, 20.87 14.95, 19.24 16.57 C17.6 18.19, 15.49 19.19, 13.29 19.42 C11.09 19.65, 8.04 19.03, 6.05 17.94 C4.05 16.86, 2.12 14.91, 1.32 12.91 C0.52 10.92, 0.44 8.03, 1.26 5.98 C2.08 3.94, 3.94 1.45, 6.25 0.63 C8.56 -0.2, 13.33 0.95, 15.11 1.04 C16.89 1.14, 16.94 1.01, 16.92 1.18 M15.28 0.07 C17.32 0.85, 20.08 4.04, 21.06 5.87 C22.04 7.7, 21.56 8.9, 21.14 11.02 C20.71 13.15, 20.51 17.07, 18.53 18.62 C16.55 20.17, 11.94 20.61, 9.26 20.31 C6.58 20.01, 3.87 18.42, 2.45 16.81 C1.04 15.2, 0.85 12.79, 0.76 10.66 C0.68 8.54, 0.87 6.01, 1.97 4.04 C3.07 2.06, 4.97 -0.46, 7.37 -1.2 C9.76 -1.93, 14.83 -0.75, 16.35 -0.4 C17.86 -0.04, 16.67 0.71, 16.45 0.95" stroke="#000000" stroke-width="1" fill="none"></path></g><g stroke-linecap="round"><g transform="translate(38.91217041015625 276.9731140136719) rotate(0 23.451742122001008 -1.5988378740847224)"><path d="M-1.19 -0.26 C6.61 -0.83, 38.08 -2.57, 45.89 -2.94 M0.38 -1.44 C8.63 -1.84, 40.17 -0.86, 48.1 -1.38" stroke="#000000" stroke-width="1" fill="none"></path></g><g transform="translate(38.91217041015625 276.9731140136719) rotate(0 23.451742122001008 -1.5988378740847224)"><path d="M25.69 5.29 C31.11 3.29, 36.81 4.39, 48.3 -0.34 M26.62 6.05 C29.87 6.16, 35.28 2.77, 48.98 -0.81" stroke="#000000" stroke-width="1" fill="none"></path></g><g transform="translate(38.91217041015625 276.9731140136719) rotate(0 23.451742122001008 -1.5988378740847224)"><path d="M25.51 -10.77 C31.03 -9.15, 36.78 -4.44, 48.3 -0.34 M26.44 -10 C29.87 -6.48, 35.32 -6.46, 48.98 -0.81" stroke="#000000" stroke-width="1" fill="none"></path></g></g><g stroke-linecap="round"><g transform="translate(282.0575071210974 275.6374851797707) rotate(0 48.4919478549063 -1.364354223990773)"><path d="M1.18 -0.42 C16.73 -0.61, 78.65 -2.23, 94.5 -2.3 M0.34 -1.69 C16.15 -1.66, 80.73 -1.06, 96.64 -1.27" stroke="#000000" stroke-width="1" fill="none"></path></g><g transform="translate(282.0575071210974 275.6374851797707) rotate(0 48.4919478549063 -1.364354223990773)"><path d="M67.75 7.2 C78.18 5.78, 91.77 -0.02, 97.88 0.54 M69.12 10 C77.55 5.22, 84.52 2.79, 97.35 -1.48" stroke="#000000" stroke-width="1" fill="none"></path></g><g transform="translate(282.0575071210974 275.6374851797707) rotate(0 48.4919478549063 -1.364354223990773)"><path d="M67.74 -13.32 C77.97 -6.58, 91.57 -4.21, 97.88 0.54 M69.11 -10.52 C77.44 -9.12, 84.41 -5.38, 97.35 -1.48" stroke="#000000" stroke-width="1" fill="none"></path></g></g><g transform="translate(112.47125244140625 462.9060974121094) rotate(0 83 12.5)"><text x="83" y="18" font-family="Virgil, Segoe UI Emoji" font-size="20px" fill="#000000" text-anchor="middle" style="white-space: pre;" direction="ltr">The send blocks.</text></g><g stroke-linecap="round" transform="translate(92.32174682617188 443.94400024414074) rotate(0 100.63185119628906 32.54321289062494)"><path d="M-1.12 -1.59 C55.89 1.18, 115.62 2.83, 202.2 -1.5 M-0.85 0.85 C77.48 -1.12, 156.83 -0.87, 202.08 0.23 M201.05 1.16 C203.2 19.75, 202.93 40.64, 200.31 64.09 M200.63 0.85 C201.56 17.08, 201.31 33.01, 202.23 64.8 M201.58 64.99 C148.76 63.35, 93.82 64.18, 1.2 63.6 M200.63 64.84 C150.43 64.28, 100.53 63.94, 0.68 64.72 M-1.52 65.39 C1.08 51.91, -2.36 37.87, -1.01 1.13 M-0.1 65.38 C0.25 49.68, 0 34.58, 0.02 0.49" stroke="#000000" stroke-width="1" fill="none"></path></g><g transform="translate(311.36956787109375 236.6917724609375) rotate(0 10 12.5)"><text x="10" y="18" font-family="Virgil, Segoe UI Emoji" font-size="20px" fill="#000000" text-anchor="middle" style="white-space: pre;" direction="ltr">no</text></g><g transform="translate(192.20965576171875 373.61248779296875) rotate(0 15.5 12.5)"><text x="15.5" y="18" font-family="Virgil, Segoe UI Emoji" font-size="20px" fill="#000000" text-anchor="middle" style="white-space: pre;" direction="ltr">yes</text></g><g transform="translate(779.3213500976562 143.4775390625) rotate(0 10 12.5)"><text x="10" y="18" font-family="Virgil, Segoe UI Emoji" font-size="20px" fill="#000000" text-anchor="middle" style="white-space: pre;" direction="ltr">no</text></g><g transform="translate(600.7687377929688 235.77308654785156) rotate(0 10 12.5)"><text x="10" y="18" font-family="Virgil, Segoe UI Emoji" font-size="20px" fill="#000000" text-anchor="middle" style="white-space: pre;" direction="ltr">no</text></g><g stroke-linecap="round" transform="translate(702.8027038574219 10) rotate(0 64.18829345703125 49.9456787109375)"><path d="M1.59 -1.27 C28.84 -1.57, 58.12 -0.28, 129.55 0.2 M-0.67 0.91 C40.44 -1.73, 81.06 -0.64, 127.69 0.5 M130.02 -1.25 C127.66 19.75, 128.44 40.51, 127.83 98.75 M128.47 -0.88 C129.64 31.44, 128.77 65.27, 128.12 99.74 M128.75 98.05 C95.38 97.27, 65.91 97.61, 1.35 101.45 M128.1 99.66 C102.25 99.77, 74.88 100.98, 0.48 99.13 M0.28 98.91 C0.46 64.76, -0.56 28.78, -1.96 0.76 M-0.83 98.98 C-0.07 76.46, 1.17 53.86, -0.46 -0.14" stroke="#000000" stroke-width="1" fill="none"></path></g><g transform="translate(718.9026794433594 18.381134033203125) rotate(0 47 37.5)"><text x="47" y="18" font-family="Virgil, Segoe UI Emoji" font-size="20px" fill="#000000" text-anchor="middle" style="white-space: pre;" direction="ltr">The send</text><text x="47" y="43" font-family="Virgil, Segoe UI Emoji" font-size="20px" fill="#000000" text-anchor="middle" style="white-space: pre;" direction="ltr">proceeds</text><text x="47" y="68" font-family="Virgil, Segoe UI Emoji" font-size="20px" fill="#000000" text-anchor="middle" style="white-space: pre;" direction="ltr">normally.</text></g><g stroke-linecap="round"><g transform="translate(573.7699034628924 275.42668326371347) rotate(0 44.68731486371934 -0.6984074861680654)"><path d="M1.12 -1.14 C15.66 -1.67, 72.58 -2.04, 86.99 -2.27 M0.25 0.87 C15.17 0.44, 74.74 -0.55, 89.13 -0.96" stroke="#000000" stroke-width="1" fill="none"></path></g><g transform="translate(573.7699034628924 275.42668326371347) rotate(0 44.68731486371934 -0.6984074861680654)"><path d="M59.26 8.09 C68.1 5.82, 75.42 2.12, 88.37 -2.37 M60.29 10.77 C68.89 6.12, 77.64 2.84, 88.13 -0.32" stroke="#000000" stroke-width="1" fill="none"></path></g><g transform="translate(573.7699034628924 275.42668326371347) rotate(0 44.68731486371934 -0.6984074861680654)"><path d="M58.82 -12.42 C67.93 -9.02, 75.37 -7.03, 88.37 -2.37 M59.84 -9.74 C68.63 -8.59, 77.51 -6.07, 88.13 -0.32" stroke="#000000" stroke-width="1" fill="none"></path></g></g><g stroke-linecap="round"><g transform="translate(182.82890191419847 367.098276233026) rotate(0 0.7298409654972033 37.196461155216554)"><path d="M0.81 -0.27 C0.59 25.55, -0.62 46.89, 0.57 73.86 M-0.64 -0.67 C-0.37 18.15, 1.3 34.37, 2.1 75.06" stroke="#000000" stroke-width="1" fill="none"></path></g><g transform="translate(182.82890191419847 367.098276233026) rotate(0 0.7298409654972033 37.196461155216554)"><path d="M-8.16 46.91 C-5.26 57.82, -3.73 64.31, 0.22 74.38 M-9.62 46.51 C-7.23 54.22, -3.52 59.38, 1.76 75.59" stroke="#000000" stroke-width="1" fill="none"></path></g><g transform="translate(182.82890191419847 367.098276233026) rotate(0 0.7298409654972033 37.196461155216554)"><path d="M12.35 46.31 C8.72 57.6, 3.72 64.28, 0.22 74.38 M10.89 45.91 C8.42 53.9, 7.27 59.2, 1.76 75.59" stroke="#000000" stroke-width="1" fill="none"></path></g></g><g stroke-linecap="round" transform="translate(662.7600708007812 179.11546325683594) rotate(0 100.15206909179688 94.87806701660156)"><path d="M101.25 -1.34 C139.79 37.07, 178.78 74.69, 202.24 94.99 M100.55 0.33 C136.25 34.46, 172.92 69.32, 199.98 94.29 M200.42 95.79 C178.98 116.01, 155.12 138.77, 100.14 190.08 M199.81 95.74 C159.94 131.65, 120.42 168.18, 101.58 189.64 M99.16 188.92 C67.1 154.63, 27.86 124.07, -0.78 93.83 M100.51 190.14 C67.57 156.31, 33.47 124.23, 0.18 94.13 M-1.16 95.23 C26.21 70.44, 48.88 48.3, 102.68 -1.14 M-0.07 94.21 C40.15 58.92, 78.93 20.27, 101.51 -0.15" stroke="#000000" stroke-width="1" fill="none"></path></g><g transform="translate(731.2193298339844 233.54678344726562) rotate(0 34 37.5)"><text x="34" y="18" font-family="Virgil, Segoe UI Emoji" font-size="20px" fill="#000000" text-anchor="middle" style="white-space: pre;" direction="ltr">Is the</text><text x="34" y="43" font-family="Virgil, Segoe UI Emoji" font-size="20px" fill="#000000" text-anchor="middle" style="white-space: pre;" direction="ltr">channel</text><text x="34" y="68" font-family="Virgil, Segoe UI Emoji" font-size="20px" fill="#000000" text-anchor="middle" style="white-space: pre;" direction="ltr">full?</text></g><g stroke-linecap="round"><g transform="translate(766.3745411346886 181.0180539137155) rotate(0 -0.49456711508071294 -36.49285209003986)"><path d="M-0.33 -1.5 C-0.46 -12.83, 1.07 -28.91, -0.84 -73.43 M-0.72 0.44 C0.15 -17.56, -0.68 -35.27, -1.12 -71.29" stroke="#000000" stroke-width="1" fill="none"></path></g><g transform="translate(766.3745411346886 181.0180539137155) rotate(0 -0.49456711508071294 -36.49285209003986)"><path d="M9.25 -44.77 C7.34 -47.17, 6.81 -54.4, -1.45 -73.01 M8.86 -42.82 C7.35 -50.27, 4.06 -57.41, -1.73 -70.87" stroke="#000000" stroke-width="1" fill="none"></path></g><g transform="translate(766.3745411346886 181.0180539137155) rotate(0 -0.49456711508071294 -36.49285209003986)"><path d="M-11.26 -44.44 C-9.03 -47.09, -5.41 -54.39, -1.45 -73.01 M-11.65 -42.5 C-8.2 -50.01, -6.53 -57.23, -1.73 -70.87" stroke="#000000" stroke-width="1" fill="none"></path></g></g><g stroke-linecap="round"><g transform="translate(762.5106629747897 367.53892873972654) rotate(0 1.0986752230674028 53.16494593396783)"><path d="M1.11 0.23 C-0.17 32.83, -1.05 61.79, 2.61 105.64 M-0.41 0.27 C-0.14 25.29, 0.15 49.14, 0.5 106.1" stroke="#000000" stroke-width="1" fill="none"></path></g></g><g stroke-linecap="round"><g transform="translate(762.8289706239561 472.86646684311984) rotate(0 -232.31341234799697 1.6575653598944484)"><path d="M0.75 0.62 C-125.57 -0.75, -252.09 0.55, -465.37 3.31 M-0.05 0 C-123.43 0.69, -246.41 1.68, -464.71 2.42" stroke="#000000" stroke-width="1" fill="none"></path></g><g transform="translate(762.8289706239561 472.86646684311984) rotate(0 -232.31341234799697 1.6575653598944484)"><path d="M-434.93 -6.61 C-443.27 -5.79, -452.14 -1.79, -466.11 3.55 M-436.68 -7.95 C-444.36 -5.34, -451.18 -2.03, -464.67 1.6" stroke="#000000" stroke-width="1" fill="none"></path></g><g transform="translate(762.8289706239561 472.86646684311984) rotate(0 -232.31341234799697 1.6575653598944484)"><path d="M-434.85 13.91 C-443.41 9.16, -452.3 7.61, -466.11 3.55 M-436.59 12.57 C-444.27 9.74, -451.11 7.6, -464.67 1.6" stroke="#000000" stroke-width="1" fill="none"></path></g></g><g transform="translate(775.8150329589844 390.6668701171875) rotate(0 15.5 12.5)"><text x="15.5" y="18" font-family="Virgil, Segoe UI Emoji" font-size="20px" fill="#000000" text-anchor="middle" style="white-space: pre;" direction="ltr">yes</text></g><g stroke-linecap="round"><g transform="translate(478.384437522217 181.0567717078343) rotate(0 -0.18915795420292625 -35.86732370790244)"><path d="M-0.08 0.82 C-2.23 -23.69, 0.93 -44.03, 0.44 -70.53 M0.03 0.11 C-1.07 -23.16, -1 -45.65, -0.59 -72.55" stroke="#000000" stroke-width="1" fill="none"></path></g><g transform="translate(478.384437522217 181.0567717078343) rotate(0 -0.18915795420292625 -35.86732370790244)"><path d="M9.28 -43.43 C4.19 -54.19, 4.35 -60.72, 0.36 -71.37 M9.39 -44.14 C5.66 -53.58, 2.72 -62.24, -0.68 -73.39" stroke="#000000" stroke-width="1" fill="none"></path></g><g transform="translate(478.384437522217 181.0567717078343) rotate(0 -0.18915795420292625 -35.86732370790244)"><path d="M-11.24 -43.66 C-9.8 -54.22, -3.12 -60.68, 0.36 -71.37 M-11.13 -44.37 C-8.32 -53.72, -4.72 -62.3, -0.68 -73.39" stroke="#000000" stroke-width="1" fill="none"></path></g></g><g transform="translate(488.4887390136719 142.88873291015625) rotate(0 15.5 12.5)"><text x="15.5" y="18" font-family="Virgil, Segoe UI Emoji" font-size="20px" fill="#000000" text-anchor="middle" style="white-space: pre;" direction="ltr">yes</text></g><g stroke-linecap="round" transform="translate(425.7870788574219 48.20025634765625) rotate(0 52.40350341796875 28.686660766601562)"><path d="M-0.57 -1.38 C24.24 0.72, 45.07 -0.46, 104.75 0.14 M-0.87 0.67 C32.78 -0.53, 66.7 -1.03, 105.2 -0.76 M105.37 -0.31 C104.19 11.75, 104.45 22.58, 103.05 58.97 M104.61 -0.35 C103.42 13.85, 104.5 26.71, 104.42 57.96 M105.45 56.04 C69.88 56.95, 31.08 59.34, 1.12 56.65 M104.16 58.1 C67.87 57.02, 29.44 56.13, -0.36 56.41 M1.02 59.28 C-0.62 44.28, 1.26 29.47, -0.92 0.3 M0.68 57.8 C-0.6 43.62, -0.1 30.41, 0.94 -0.94" stroke="#000000" stroke-width="1" fill="none"></path></g><g transform="translate(452.0536804199219 61.115570068359375) rotate(0 26 12.5)"><text x="26" y="18" font-family="Virgil, Segoe UI Emoji" font-size="20px" fill="#000000" text-anchor="middle" style="white-space: pre;" direction="ltr">panic!</text></g></svg>