<svg version="1.1" xmlns="http://www.w3.org/2000/svg" viewBox="0 0 678.3628540039062 343.5672607421875" width="1356.7257080078125" height="687.134521484375">
  <!-- svg-source:excalidraw -->
  
  <defs>
    <style>
      @font-face {
        font-family: "Virgil";
        src: url("https://excalidraw.com/Virgil.woff2");
      }
      @font-face {
        font-family: "Cascadia";
        src: url("https://excalidraw.com/Cascadia.woff2");
      }
    </style>
  </defs>
  <g stroke-linecap="round"><g transform="translate(50.532745361328125 308.6782531738281) rotate(0 -0.5663292645569982 -133.3181532382965)"><path d="M-0.64 -0.1 C-0.78 -44.52, -1.32 -222.19, -1.73 -266.54 M1.23 -1.2 C1.06 -45.5, -2.06 -221.48, -2.36 -265.47" stroke="#000000" stroke-width="1" fill="none"></path></g><g transform="translate(50.532745361328125 308.6782531738281) rotate(0 -0.5663292645569982 -133.3181532382965)"><path d="M8.09 -236.41 C4.35 -245.1, 2.56 -248.32, -1.36 -265.61 M8.98 -237.41 C4.81 -244.73, 1.59 -253.07, -1.86 -265.46" stroke="#000000" stroke-width="1" fill="none"></path></g><g transform="translate(50.532745361328125 308.6782531738281) rotate(0 -0.5663292645569982 -133.3181532382965)"><path d="M-12.43 -236.15 C-11.53 -244.78, -8.69 -248.06, -1.36 -265.61 M-11.53 -237.14 C-9.71 -244.48, -6.94 -252.9, -1.86 -265.46" stroke="#000000" stroke-width="1" fill="none"></path></g></g><g stroke-linecap="round"><g transform="translate(52.33343505859375 309.31591796875) rotate(0 276.51019985445777 -2.8670846462249813)"><path d="M0.85 0.18 C92.51 -0.77, 459.18 -4.9, 551.03 -5.92 M-0.16 -0.77 C91.76 -1.6, 461.29 -4.26, 553.18 -5" stroke="#000000" stroke-width="1" fill="none"></path></g><g transform="translate(52.33343505859375 309.31591796875) rotate(0 276.51019985445777 -2.8670846462249813)"><path d="M525.37 3.68 C534.09 0.98, 545.08 -4.85, 554.53 -3.9 M524.7 6.2 C534.39 1.39, 544.02 -1.03, 554.04 -5.22" stroke="#000000" stroke-width="1" fill="none"></path></g><g transform="translate(52.33343505859375 309.31591796875) rotate(0 276.51019985445777 -2.8670846462249813)"><path d="M525.22 -16.84 C533.96 -11.52, 545.01 -9.34, 554.53 -3.9 M524.55 -14.32 C534.42 -12.24, 544.1 -7.76, 554.04 -5.22" stroke="#000000" stroke-width="1" fill="none"></path></g></g><g transform="translate(10 10) rotate(0 37 11.5)"><text x="0" y="19" font-family="Helvetica, Segoe UI Emoji" font-size="20px" fill="#000000" text-anchor="start" style="white-space: pre;" direction="ltr">difficulty</text></g><g transform="translate(629.3628540039062 293.3681335449219) rotate(0 19.5 11.5)"><text x="0" y="19" font-family="Helvetica, Segoe UI Emoji" font-size="20px" fill="#000000" text-anchor="start" style="white-space: pre;" direction="ltr">time</text></g><g transform="translate(51.700531005859375 275.40069580078125) rotate(0 0.0000152587890625 0)" stroke="none"><path fill="#000000" d="M 0.00,-2.22 Q 0.00,-2.22 0.35,-2.16 0.70,-2.10 1.02,-1.93 1.34,-1.76 1.59,-1.50 1.83,-1.24 1.98,-0.92 2.13,-0.59 2.17,-0.23 2.21,0.12 2.14,0.47 2.06,0.82 1.87,1.12 1.69,1.43 1.41,1.67 1.14,1.90 0.81,2.03 0.47,2.16 0.11,2.18 -0.24,2.20 -0.58,2.11 -0.93,2.01 -1.22,1.81 -1.52,1.61 -1.74,1.32 -1.96,1.03 -2.07,0.69 -2.19,0.35 -2.19,-0.00 -2.19,-0.35 -2.07,-0.70 -1.96,-1.04 -1.74,-1.32 -1.52,-1.61 -1.22,-1.81 -0.93,-2.01 -0.58,-2.11 -0.23,-2.20 0.11,-2.18 0.47,-2.16 0.81,-2.03 1.14,-1.90 1.41,-1.66 1.69,-1.43 1.87,-1.12 2.06,-0.82 2.14,-0.47 2.21,-0.11 2.17,0.23 2.13,0.59 1.98,0.92 1.83,1.24 1.59,1.50 1.34,1.76 1.02,1.93 0.70,2.10 0.35,2.16 -0.00,2.22 -0.00,2.22 0.00,2.22 -0.26,2.18 -0.53,2.15 -0.78,2.06 -1.03,1.96 -1.25,1.81 -1.47,1.66 -1.65,1.46 -1.82,1.26 -1.95,1.02 -2.07,0.78 -2.14,0.52 -2.20,0.26 -2.20,-0.00 -2.20,-0.26 -2.14,-0.52 -2.07,-0.78 -1.95,-1.02 -1.82,-1.26 -1.64,-1.46 -1.47,-1.66 -1.25,-1.81 -1.03,-1.96 -0.78,-2.06 -0.53,-2.15 -0.26,-2.18 0.00,-2.22 0.00,-2.22 L 0.00,-2.22 Z"></path></g><g transform="translate(53.39739990234375 275.49517822265625) rotate(0 232.35958862304688 -69.5269775390625)" stroke="none"><path fill="#000000" d="M 0,-2.60 Q 0,-2.60 1.56,-2.56 3.13,-2.53 4.93,-2.61 6.74,-2.69 8.10,-2.78 9.46,-2.88 10.99,-3.14 12.53,-3.39 13.90,-3.83 15.27,-4.27 16.88,-4.39 18.48,-4.52 19.92,-4.56 21.35,-4.59 22.69,-4.60 24.03,-4.61 25.39,-4.62 26.75,-4.62 27.90,-4.72 29.05,-4.82 31.46,-5.08 33.86,-5.35 35.70,-5.40 37.54,-5.46 38.89,-5.49 40.23,-5.52 41.36,-5.55 42.48,-5.57 43.80,-5.58 45.11,-5.59 47.34,-6.15 49.56,-6.72 50.70,-6.78 51.84,-6.84 53.43,-7.31 55.01,-7.79 56.28,-7.94 57.55,-8.09 58.65,-8.12 59.75,-8.15 60.82,-8.33 61.88,-8.51 63.21,-8.89 64.53,-9.28 65.90,-9.51 67.27,-9.74 68.35,-9.86 69.43,-9.98 70.93,-10.09 72.42,-10.20 74.02,-10.58 75.62,-10.97 77.19,-11.22 78.75,-11.47 79.83,-11.64 80.92,-11.81 82.14,-12.06 83.36,-12.31 84.80,-12.50 86.25,-12.69 87.56,-12.98 88.87,-13.27 90.69,-13.75 92.50,-14.24 94.16,-14.64 95.82,-15.04 97.07,-15.46 98.32,-15.87 99.79,-16.32 101.26,-16.77 102.43,-17.16 103.61,-17.55 104.83,-18.20 106.05,-18.85 107.65,-19.37 109.25,-19.90 110.69,-20.32 112.13,-20.75 113.48,-21.51 114.83,-22.26 116.18,-22.98 117.53,-23.71 118.64,-24.29 119.74,-24.86 121.15,-25.48 122.56,-26.09 123.77,-26.98 124.97,-27.86 126.06,-28.57 127.14,-29.28 128.25,-29.97 129.36,-30.66 130.40,-31.02 131.43,-31.39 133.25,-32.32 135.08,-33.24 136.20,-33.70 137.32,-34.16 138.52,-34.97 139.73,-35.78 140.68,-36.31 141.63,-36.83 142.90,-37.41 144.18,-37.99 145.09,-38.61 146.00,-39.22 147.00,-39.82 148.00,-40.41 149.30,-41.25 150.59,-42.09 151.77,-42.89 152.95,-43.68 153.82,-44.35 154.69,-45.02 155.68,-45.61 156.67,-46.20 157.92,-47.10 159.18,-48.01 160.31,-48.68 161.43,-49.35 162.38,-50.10 163.32,-50.84 164.64,-51.57 165.96,-52.30 167.34,-53.27 168.72,-54.24 169.91,-55.02 171.09,-55.80 172.07,-56.52 173.04,-57.25 174.10,-58.31 175.16,-59.36 176.21,-60.03 177.26,-60.69 178.69,-61.90 180.11,-63.10 181.48,-64.34 182.84,-65.59 183.90,-66.57 184.96,-67.55 185.86,-68.66 186.76,-69.77 187.85,-71.13 188.93,-72.49 189.98,-73.82 191.03,-75.15 192.08,-76.31 193.13,-77.46 195.05,-78.64 196.97,-79.82 197.72,-80.67 198.46,-81.52 199.65,-82.81 200.83,-84.10 202.40,-85.73 203.96,-87.35 205.01,-88.00 206.06,-88.65 206.84,-89.59 207.62,-90.53 208.37,-91.55 209.13,-92.57 209.94,-93.59 210.75,-94.60 211.22,-95.66 211.68,-96.72 212.08,-97.74 212.49,-98.75 212.88,-100.03 213.28,-101.31 213.72,-102.30 214.16,-103.28 214.51,-104.47 214.86,-105.66 215.26,-106.66 215.65,-107.67 216.08,-109.19 216.52,-110.71 217.31,-112.74 218.10,-114.77 218.62,-115.92 219.14,-117.08 219.97,-118.55 220.80,-120.02 221.09,-121.17 221.39,-122.31 221.84,-123.36 222.29,-124.41 222.84,-125.36 223.38,-126.32 223.89,-127.32 224.39,-128.33 225.18,-129.58 225.97,-130.82 226.96,-131.99 227.95,-133.16 229.02,-133.92 230.09,-134.69 231.47,-135.22 232.86,-135.76 234.21,-135.79 235.57,-135.83 236.90,-135.64 238.22,-135.45 239.38,-134.81 240.53,-134.17 241.73,-133.41 242.93,-132.66 243.74,-131.93 244.55,-131.21 245.35,-130.02 246.16,-128.83 246.89,-127.53 247.63,-126.22 248.03,-125.23 248.43,-124.24 249.11,-122.50 249.79,-120.75 250.30,-119.04 250.81,-117.32 251.10,-115.99 251.39,-114.66 251.80,-113.00 252.21,-111.33 252.61,-110.13 253.01,-108.92 253.42,-107.70 253.84,-106.48 254.22,-105.49 254.61,-104.50 254.89,-103.36 255.16,-102.22 255.75,-100.64 256.33,-99.06 256.72,-98.07 257.11,-97.08 257.53,-95.68 257.94,-94.29 258.58,-92.99 259.21,-91.68 259.98,-89.99 260.75,-88.29 261.42,-87.23 262.10,-86.17 262.92,-84.92 263.75,-83.67 264.78,-82.03 265.81,-80.39 266.81,-79.32 267.81,-78.24 268.84,-77.92 269.87,-77.59 270.97,-77.56 272.08,-77.54 273.28,-77.48 274.48,-77.42 275.94,-77.40 277.41,-77.39 278.76,-77.40 280.11,-77.41 281.46,-77.42 282.81,-77.43 284.39,-77.44 285.98,-77.44 287.35,-77.43 288.72,-77.42 290.42,-77.76 292.12,-78.10 293.23,-78.65 294.34,-79.21 295.69,-79.94 297.04,-80.68 298.56,-81.19 300.07,-81.69 301.35,-82.11 302.62,-82.53 303.52,-83.28 304.42,-84.03 305.86,-84.80 307.30,-85.57 308.66,-86.45 310.02,-87.34 311.41,-87.70 312.79,-88.06 314.27,-88.63 315.75,-89.20 317.72,-89.81 319.68,-90.42 320.78,-90.78 321.87,-91.14 322.97,-91.72 324.08,-92.30 325.28,-92.63 326.49,-92.96 327.59,-93.29 328.68,-93.62 329.68,-94.01 330.68,-94.40 332.26,-94.82 333.84,-95.23 335.45,-95.81 337.05,-96.38 338.18,-96.83 339.31,-97.27 340.77,-97.70 342.23,-98.12 343.57,-98.53 344.91,-98.94 346.34,-99.53 347.77,-100.12 348.88,-100.42 350.00,-100.71 351.28,-101.20 352.55,-101.68 354.26,-102.14 355.96,-102.60 357.67,-103.15 359.39,-103.70 360.75,-104.10 362.11,-104.50 363.52,-105.01 364.93,-105.51 366.60,-106.06 368.28,-106.60 369.29,-106.98 370.29,-107.36 371.51,-107.77 372.73,-108.19 374.49,-108.75 376.26,-109.32 377.56,-109.81 378.87,-110.31 380.75,-111.08 382.62,-111.86 384.40,-112.41 386.17,-112.97 387.63,-113.46 389.08,-113.95 391.34,-114.66 393.59,-115.38 394.81,-115.72 396.03,-116.06 397.77,-116.62 399.50,-117.17 401.42,-117.82 403.33,-118.47 404.91,-119.10 406.48,-119.73 407.89,-120.17 409.29,-120.60 410.56,-121.09 411.83,-121.57 413.27,-122.08 414.71,-122.59 415.83,-123.31 416.95,-124.03 417.86,-124.73 418.76,-125.44 419.88,-126.20 421.00,-126.97 422.26,-127.64 423.52,-128.31 425.17,-128.97 426.81,-129.63 427.80,-130.05 428.79,-130.47 430.38,-131.05 431.96,-131.63 433.49,-132.22 435.02,-132.82 436.26,-133.14 437.49,-133.47 438.86,-133.91 440.23,-134.36 441.66,-134.91 443.08,-135.45 444.11,-135.84 445.15,-136.24 446.31,-136.64 447.48,-137.04 448.99,-137.51 450.50,-137.98 451.48,-138.37 452.47,-138.77 453.93,-139.22 455.38,-139.66 456.65,-140.16 457.91,-140.65 459.28,-141.02 460.66,-141.39 462.45,-142.01 464.24,-142.63 464.83,-142.61 465.41,-142.59 465.96,-142.39 466.50,-142.18 466.96,-141.82 467.41,-141.45 467.72,-140.96 468.04,-140.46 468.18,-139.89 468.31,-139.33 468.26,-138.74 468.21,-138.16 467.98,-137.63 467.75,-137.09 467.36,-136.66 466.96,-136.23 466.45,-135.94 465.95,-135.65 465.37,-135.55 464.80,-135.44 464.22,-135.52 463.64,-135.60 463.12,-135.86 462.60,-136.13 462.18,-136.54 461.77,-136.96 461.52,-137.48 461.26,-138.00 461.18,-138.58 461.11,-139.16 461.22,-139.74 461.33,-140.31 461.62,-140.82 461.91,-141.32 462.35,-141.71 462.78,-142.10 463.32,-142.33 463.86,-142.56 464.44,-142.60 465.02,-142.65 465.59,-142.50 466.16,-142.36 466.65,-142.04 467.14,-141.73 467.50,-141.27 467.86,-140.81 468.06,-140.26 468.26,-139.71 468.28,-139.13 468.29,-138.55 468.12,-137.99 467.94,-137.43 467.60,-136.96 467.26,-136.48 466.78,-136.15 466.30,-135.81 465.74,-135.64 465.19,-135.47 465.19,-135.47 465.19,-135.47 463.25,-134.76 461.31,-134.05 459.80,-133.62 458.28,-133.19 456.86,-132.73 455.44,-132.27 454.26,-131.89 453.07,-131.52 451.73,-131.17 450.38,-130.81 449.10,-130.33 447.81,-129.85 446.61,-129.40 445.41,-128.96 444.25,-128.53 443.09,-128.10 442.08,-127.66 441.08,-127.22 439.44,-126.75 437.81,-126.29 436.34,-125.68 434.88,-125.07 433.71,-124.71 432.55,-124.35 431.61,-123.85 430.67,-123.34 429.51,-123.04 428.34,-122.73 427.23,-122.18 426.13,-121.62 424.98,-121.11 423.83,-120.60 422.86,-119.72 421.90,-118.83 420.88,-118.31 419.86,-117.80 418.46,-117.16 417.07,-116.53 415.70,-116.13 414.33,-115.72 413.12,-115.37 411.92,-115.02 410.89,-114.73 409.87,-114.45 408.49,-114.00 407.12,-113.55 406.05,-113.14 404.97,-112.74 403.03,-112.10 401.10,-111.45 399.39,-110.99 397.69,-110.52 396.42,-110.13 395.16,-109.73 393.18,-109.10 391.20,-108.47 389.79,-107.85 388.39,-107.23 386.95,-106.55 385.52,-105.86 384.14,-105.10 382.76,-104.33 380.87,-103.59 378.99,-102.86 377.58,-102.42 376.17,-101.97 374.97,-101.57 373.76,-101.17 372.64,-100.78 371.52,-100.40 370.22,-99.98 368.93,-99.56 367.45,-99.16 365.97,-98.76 364.37,-98.10 362.77,-97.45 361.26,-97.03 359.76,-96.61 358.79,-96.18 357.82,-95.74 356.44,-95.33 355.05,-94.92 353.46,-94.28 351.87,-93.64 350.64,-93.36 349.41,-93.07 348.43,-92.59 347.45,-92.10 346.20,-91.73 344.95,-91.36 343.60,-90.97 342.25,-90.58 341.13,-90.22 340.01,-89.86 338.56,-89.35 337.11,-88.85 336.05,-88.43 334.98,-88.02 333.83,-87.64 332.68,-87.26 331.31,-86.86 329.95,-86.47 328.66,-86.01 327.37,-85.56 326.36,-85.15 325.36,-84.75 324.16,-84.33 322.97,-83.92 321.61,-83.42 320.25,-82.92 319.14,-82.69 318.02,-82.45 316.65,-81.86 315.27,-81.28 313.85,-80.77 312.42,-80.25 311.24,-79.64 310.06,-79.03 308.95,-78.31 307.84,-77.59 306.92,-76.94 306.00,-76.29 304.44,-75.70 302.88,-75.11 301.27,-74.53 299.66,-73.94 298.14,-73.18 296.62,-72.41 295.69,-71.91 294.75,-71.40 293.27,-71.03 291.79,-70.65 290.26,-70.46 288.72,-70.27 287.35,-70.26 285.98,-70.25 284.39,-70.25 282.81,-70.25 281.46,-70.27 280.11,-70.28 278.76,-70.29 277.40,-70.30 275.94,-70.29 274.47,-70.28 273.25,-70.22 272.04,-70.17 270.18,-70.21 268.32,-70.25 267.20,-70.50 266.08,-70.74 264.95,-71.26 263.82,-71.77 262.70,-72.92 261.58,-74.08 260.53,-75.45 259.48,-76.83 258.29,-78.51 257.10,-80.19 256.27,-81.42 255.43,-82.64 254.62,-84.30 253.82,-85.95 253.12,-87.38 252.42,-88.80 251.82,-90.00 251.22,-91.19 250.80,-92.24 250.38,-93.28 249.98,-94.72 249.58,-96.15 249.20,-97.32 248.82,-98.49 248.42,-99.93 248.02,-101.36 247.50,-102.58 246.97,-103.79 246.58,-104.95 246.18,-106.12 245.77,-107.38 245.35,-108.64 245.00,-109.87 244.64,-111.10 244.32,-112.60 243.99,-114.10 243.54,-115.87 243.08,-117.65 242.69,-118.76 242.31,-119.87 241.51,-121.49 240.71,-123.11 239.99,-124.63 239.26,-126.15 237.96,-126.89 236.66,-127.63 236.04,-128.55 235.42,-129.46 234.31,-129.04 233.19,-128.62 232.39,-127.68 231.58,-126.75 230.89,-125.62 230.20,-124.50 229.72,-123.30 229.25,-122.10 228.75,-121.05 228.24,-119.99 227.90,-118.75 227.56,-117.51 226.70,-115.84 225.84,-114.17 225.27,-112.97 224.71,-111.76 224.39,-110.69 224.07,-109.61 223.45,-108.16 222.83,-106.70 222.30,-105.02 221.78,-103.35 221.45,-102.17 221.13,-100.99 220.54,-99.78 219.95,-98.57 219.28,-96.88 218.61,-95.19 217.86,-94.01 217.12,-92.82 216.54,-91.36 215.97,-89.89 215.24,-89.02 214.52,-88.15 213.53,-86.90 212.55,-85.64 211.31,-84.43 210.08,-83.22 208.85,-82.59 207.62,-81.97 206.46,-80.57 205.30,-79.17 204.37,-78.15 203.45,-77.13 202.68,-76.27 201.92,-75.42 200.96,-74.64 199.99,-73.86 198.79,-73.11 197.60,-72.37 196.86,-71.54 196.12,-70.72 195.24,-69.59 194.35,-68.45 193.39,-67.24 192.44,-66.02 191.78,-65.07 191.13,-64.11 189.90,-62.79 188.67,-61.47 187.48,-60.37 186.29,-59.28 184.98,-58.06 183.68,-56.84 182.28,-55.66 180.87,-54.49 179.92,-53.91 178.97,-53.33 177.65,-52.14 176.33,-50.96 175.05,-50.00 173.77,-49.03 172.71,-48.40 171.65,-47.77 170.33,-46.77 169.00,-45.77 167.97,-45.20 166.94,-44.63 165.56,-43.64 164.17,-42.65 163.05,-41.88 161.93,-41.10 161.02,-40.47 160.12,-39.84 158.95,-39.13 157.77,-38.42 156.54,-37.61 155.31,-36.80 153.79,-35.72 152.27,-34.63 151.25,-34.02 150.22,-33.40 149.18,-32.79 148.15,-32.18 147.18,-31.70 146.21,-31.23 144.87,-30.46 143.53,-29.70 142.52,-29.00 141.51,-28.31 140.23,-27.70 138.95,-27.09 137.63,-26.37 136.32,-25.66 135.17,-25.16 134.02,-24.67 132.83,-24.19 131.65,-23.72 130.36,-22.82 129.07,-21.92 127.90,-21.34 126.73,-20.76 124.92,-19.70 123.10,-18.65 121.78,-18.00 120.46,-17.35 119.39,-16.76 118.31,-16.17 117.15,-15.58 115.98,-14.99 114.36,-14.31 112.75,-13.62 111.44,-13.18 110.13,-12.74 109.10,-12.34 108.06,-11.94 106.40,-11.13 104.74,-10.31 103.67,-9.94 102.60,-9.58 101.17,-9.13 99.74,-8.68 98.09,-8.26 96.45,-7.85 94.85,-7.48 93.24,-7.10 91.97,-6.66 90.69,-6.22 88.88,-5.90 87.07,-5.59 85.79,-5.55 84.52,-5.51 82.74,-5.07 80.96,-4.62 79.52,-4.43 78.08,-4.24 76.28,-3.89 74.47,-3.54 72.66,-3.29 70.85,-3.03 69.38,-2.85 67.92,-2.66 66.73,-2.48 65.54,-2.31 63.99,-1.90 62.44,-1.50 61.14,-1.33 59.83,-1.16 58.55,-1.14 57.27,-1.13 55.88,-0.93 54.49,-0.73 53.36,-0.37 52.23,-0.00 50.83,0.00 49.44,0.02 48.17,0.43 46.90,0.84 45.38,0.98 43.85,1.13 42.67,1.11 41.50,1.10 40.25,1.08 39.00,1.07 37.61,1.07 36.21,1.08 34.30,1.23 32.39,1.38 31.25,1.65 30.10,1.91 28.43,2.05 26.75,2.18 25.39,2.18 24.03,2.17 22.69,2.16 21.35,2.15 19.95,2.12 18.55,2.09 17.03,2.24 15.50,2.39 14.06,2.53 12.62,2.67 11.04,2.78 9.46,2.88 8.10,2.78 6.74,2.69 4.93,2.61 3.13,2.53 1.56,2.56 0,2.60 -0.31,2.56 -0.62,2.52 -0.91,2.41 -1.20,2.30 -1.46,2.12 -1.72,1.94 -1.93,1.71 -2.14,1.47 -2.28,1.19 -2.43,0.92 -2.50,0.61 -2.58,0.31 -2.58,-0.00 -2.58,-0.31 -2.50,-0.61 -2.43,-0.92 -2.28,-1.19 -2.13,-1.47 -1.93,-1.71 -1.72,-1.94 -1.46,-2.12 -1.20,-2.30 -0.91,-2.41 -0.62,-2.52 -0.31,-2.56 0.00,-2.60 0.00,-2.60 L 0,-2.60 Z"></path></g><g transform="translate(240.23358154296875 107.05218505859375) rotate(0 35.5 9.5)"><text x="0" y="15" font-family="Helvetica, Segoe UI Emoji" font-size="16px" fill="#000000" text-anchor="start" style="white-space: pre;" direction="ltr">interfaces</text></g><g transform="translate(378.852294921875 114.0318603515625) rotate(0 44 9.5)"><text x="0" y="15" font-family="Helvetica, Segoe UI Emoji" font-size="16px" fill="#000000" text-anchor="start" style="white-space: pre;" direction="ltr">concurrency</text></g><g transform="translate(85.6348876953125 215.01266479492188) rotate(0 48.5 9.5)"><text x="0" y="15" font-family="Helvetica, Segoe UI Emoji" font-size="16px" fill="#000000" text-anchor="start" style="white-space: pre;" direction="ltr">fundamentals</text></g><g stroke-linecap="round"><g transform="translate(221.30474853515625 298.47637939453125) rotate(0 0 9.9703369140625)"><path d="M0 0 C0 3.32, 0 16.62, 0 19.94 M0 0 C0 3.32, 0 16.62, 0 19.94" stroke="#000000" stroke-width="2" fill="none"></path></g></g><g stroke-linecap="round"><g transform="translate(382.10400390625 296.396484375) rotate(0 0 9.9703369140625)"><path d="M0 0 C0 3.32, 0 16.62, 0 19.94 M0 0 C0 3.32, 0 16.62, 0 19.94" stroke="#000000" stroke-width="2" fill="none"></path></g></g><g transform="translate(117.67437744140625 314.5672607421875) rotate(0 20 9.5)"><text x="0" y="15" font-family="Helvetica, Segoe UI Emoji" font-size="16px" fill="#000000" text-anchor="start" style="white-space: pre;" direction="ltr">day 1</text></g><g transform="translate(285.38787841796875 312.5672607421875) rotate(0 20 9.5)"><text x="0" y="15" font-family="Helvetica, Segoe UI Emoji" font-size="16px" fill="#000000" text-anchor="start" style="white-space: pre;" direction="ltr">day 2</text></g><g transform="translate(446.68505859375 309.5672607421875) rotate(0 20 9.5)"><text x="0" y="15" font-family="Helvetica, Segoe UI Emoji" font-size="16px" fill="#000000" text-anchor="start" style="white-space: pre;" direction="ltr">day 3</text></g></svg>