<svg version="1.1" xmlns="http://www.w3.org/2000/svg" viewBox="0 0 547.9706088156622 407.781494140625" width="1095.9412176313244" height="815.56298828125">
  <!-- svg-source:excalidraw -->
  
  <defs>
    <style class="style-fonts">
      @font-face {
        font-family: "Virgil";
        src: url("https://excalidraw.com/Virgil.woff2");
      }
      @font-face {
        font-family: "Cascadia";
        src: url("https://excalidraw.com/Cascadia.woff2");
      }
      @font-face {
        font-family: "Assistant";
        src: url("https://excalidraw.com/Assistant-Regular.woff2");
      }
    </style>
    
  </defs>
  <rect x="0" y="0" width="547.9706088156622" height="407.781494140625" fill="#ffffff"></rect><g transform="translate(91.01177978515625 18.959426879882812) rotate(0 36.4609375 27.599999999999994)"><text x="72.921875" y="0" font-family="Helvetica, Segoe UI Emoji" font-size="16px" fill="#1e1e1e" text-anchor="end" style="white-space: pre;" direction="ltr" dominant-baseline="text-before-edge">type of</text><text x="72.921875" y="18.4" font-family="Helvetica, Segoe UI Emoji" font-size="16px" fill="#1e1e1e" text-anchor="end" style="white-space: pre;" direction="ltr" dominant-baseline="text-before-edge">receiver</text><text x="72.921875" y="36.8" font-family="Helvetica, Segoe UI Emoji" font-size="16px" fill="#1e1e1e" text-anchor="end" style="white-space: pre;" direction="ltr" dominant-baseline="text-before-edge">parameter</text></g><g transform="translate(31.76556396484375 91.98440551757812) rotate(0 33.796875 27.599999999999998)"><text x="0" y="0" font-family="Helvetica, Segoe UI Emoji" font-size="16px" fill="#1e1e1e" text-anchor="start" style="white-space: pre;" direction="ltr" dominant-baseline="text-before-edge">type of</text><text x="0" y="18.4" font-family="Helvetica, Segoe UI Emoji" font-size="16px" fill="#1e1e1e" text-anchor="start" style="white-space: pre;" direction="ltr" dominant-baseline="text-before-edge">receiver</text><text x="0" y="36.8" font-family="Helvetica, Segoe UI Emoji" font-size="16px" fill="#1e1e1e" text-anchor="start" style="white-space: pre;" direction="ltr" dominant-baseline="text-before-edge">argument</text></g><g stroke-linecap="round"><g transform="translate(173.94976806640625 15.9849853515625) rotate(0 0.03399658203125 190.68301391601562)"><path d="M0 0 C0.21 145.68, 1.42 291.96, 0.07 381.37 M0 0 C1.09 94.9, 1.12 189.24, 0.07 381.37" stroke="#1e1e1e" stroke-width="1" fill="none"></path></g></g><mask></mask><g stroke-linecap="round"><g transform="translate(355.79958697590996 10) rotate(0 1.534637451171875 193.67550659179688)"><path d="M0 0 C1.53 121.65, 2.18 241.48, 3.07 387.35 M0 0 C0.05 106.39, 1.31 213.63, 3.07 387.35" stroke="#1e1e1e" stroke-width="1" fill="none"></path></g></g><mask></mask><g stroke-linecap="round"><g transform="translate(536.1541401985662 16.34869384765625) rotate(0 -0.05462646484375 190.50115966796875)"><path d="M0 0 C3.11 112.2, 1.64 224.29, -0.11 381 M0 0 C1.23 139.34, 1.28 278.63, -0.11 381" stroke="#1e1e1e" stroke-width="1" fill="none"></path></g></g><mask></mask><g stroke-linecap="round"><g transform="translate(536.9132690429688 150.32086181640625) rotate(0 -261.70068359375 2.0652313232421875)"><path d="M0 0 C-173.66 3.03, -346.81 4.24, -523.4 4.13 M0 0 C-114.15 1.19, -228.58 1.74, -523.4 4.13" stroke="#1e1e1e" stroke-width="1" fill="none"></path></g></g><mask></mask><g stroke-linecap="round"><g transform="translate(533.4013671875 266.9526878548979) rotate(0 -261.70068359375 2.065231323242184)"><path d="M0 0 C-208.29 2.47, -416.8 4.1, -523.4 4.13 M0 0 C-145.67 1.49, -291.03 2.42, -523.4 4.13" stroke="#1e1e1e" stroke-width="1" fill="none"></path></g></g><mask></mask><g stroke-linecap="round"><g transform="translate(173.783203125 155.627197265625) rotate(0 -77.94573974609375 -65.98387145996094)"><path d="M0 0 C-34.3 -28.17, -66.33 -55.05, -155.89 -131.97 M0 0 C-30.99 -25.82, -61.62 -53.65, -155.89 -131.97" stroke="#1e1e1e" stroke-width="1" fill="none"></path></g></g><mask></mask><g transform="translate(244.89141845703125 64.02931213378906) rotate(0 10.9951171875 20.700000000000003)"><text x="21.990234375" y="0" font-family="Helvetica, Segoe UI Emoji" font-size="36px" fill="#1e1e1e" text-anchor="end" style="white-space: pre;" direction="ltr" dominant-baseline="text-before-edge">T</text></g><g transform="translate(419.0828857421875 64.02931213378906) rotate(0 18 20.700000000000003)"><text x="36" y="0" font-family="Helvetica, Segoe UI Emoji" font-size="36px" fill="#1e1e1e" text-anchor="end" style="white-space: pre;" direction="ltr" dominant-baseline="text-before-edge">*T</text></g><g transform="translate(380.9351806640625 183.35635375976562) rotate(0 64.47265625 27.599999999999998)"><text x="64.47265625" y="0" font-family="Helvetica, Segoe UI Emoji" font-size="16px" fill="#1e1e1e" text-anchor="middle" style="white-space: pre;" direction="ltr" dominant-baseline="text-before-edge">only ✅ if the</text><text x="64.47265625" y="18.4" font-family="Helvetica, Segoe UI Emoji" font-size="16px" fill="#1e1e1e" text-anchor="middle" style="white-space: pre;" direction="ltr" dominant-baseline="text-before-edge">receiver argument</text><text x="64.47265625" y="36.8" font-family="Helvetica, Segoe UI Emoji" font-size="16px" fill="#1e1e1e" text-anchor="middle" style="white-space: pre;" direction="ltr" dominant-baseline="text-before-edge">is addressable</text></g><g transform="translate(78.72393798828125 194.52720336914064) rotate(0 10.9951171875 20.7)"><text x="21.990234375" y="0" font-family="Helvetica, Segoe UI Emoji" font-size="36px" fill="#1e1e1e" text-anchor="end" style="white-space: pre;" direction="ltr" dominant-baseline="text-before-edge">T</text></g><g transform="translate(64.71417236328125 315.57239990234376) rotate(0 18 20.699999999999996)"><text x="36" y="0" font-family="Helvetica, Segoe UI Emoji" font-size="36px" fill="#1e1e1e" text-anchor="end" style="white-space: pre;" direction="ltr" dominant-baseline="text-before-edge">*T</text></g><g transform="translate(241.05078125 310.98804931640626) rotate(0 23.0009765625 20.700000000000003)"><text x="23.0009765625" y="0" font-family="Helvetica, Segoe UI Emoji" font-size="36px" fill="#1e1e1e" text-anchor="middle" style="white-space: pre;" direction="ltr" dominant-baseline="text-before-edge">✅ </text></g><g transform="translate(241.05078125 190.23716430664058) rotate(0 23.0009765625 20.7)"><text x="23.0009765625" y="0" font-family="Helvetica, Segoe UI Emoji" font-size="36px" fill="#1e1e1e" text-anchor="middle" style="white-space: pre;" direction="ltr" dominant-baseline="text-before-edge">✅ </text></g><g transform="translate(428.4681396484375 310.98804931640626) rotate(0 23.0009765625 20.700000000000003)"><text x="23.0009765625" y="0" font-family="Helvetica, Segoe UI Emoji" font-size="36px" fill="#1e1e1e" text-anchor="middle" style="white-space: pre;" direction="ltr" dominant-baseline="text-before-edge">✅ </text></g><g transform="translate(284.71142578125 306.0213623046875) rotate(0 16.9892578125 20.700000000000003)"><text x="16.9892578125" y="0" font-family="Helvetica, Segoe UI Emoji" font-size="36px" fill="#1e1e1e" text-anchor="middle" style="white-space: pre;" direction="ltr" dominant-baseline="text-before-edge">(!)</text></g><g stroke-linecap="round" transform="translate(183.9278564453125 162.05227661132812) rotate(0 81.207275390625 117.86460876464845)"><path d="M32 0 C61.1 0.72, 86.36 2.15, 130.41 0 M130.41 0 C151.85 0.49, 162.64 8.74, 162.41 32 M162.41 32 C161.78 87.37, 161.73 143.78, 162.41 203.73 M162.41 203.73 C163.89 224.53, 150.03 234.53, 130.41 235.73 M130.41 235.73 C93.41 236.12, 58.07 236.54, 32 235.73 M32 235.73 C9.41 237.58, 0.75 225.56, 0 203.73 M0 203.73 C-0.31 146.07, -0.33 85.34, 0 32 M0 32 C-0.8 10.61, 10.62 0.19, 32 0" stroke="#9c36b5" stroke-width="1.5" fill="none" stroke-dasharray="8 9"></path></g><g stroke-linecap="round" transform="translate(366.0987548828125 275.6459655761719) rotate(0 81.207275390625 60.65289306640625)"><path d="M30.33 0 C66.08 -1.32, 106.33 -1.88, 132.09 0 M132.09 0 C151.33 0.4, 160.78 10.13, 162.41 30.33 M162.41 30.33 C162.86 52.04, 162.09 74.82, 162.41 90.98 M162.41 90.98 C161.33 110.81, 151.36 119.62, 132.09 121.31 M132.09 121.31 C94.2 119.75, 58.9 120.7, 30.33 121.31 M30.33 121.31 C9.81 122.45, 0.96 110.66, 0 90.98 M0 90.98 C-1.3 76.83, 1.05 67.6, 0 30.33 M0 30.33 C1.05 11.55, 9.2 0.94, 30.33 0" stroke="#e8590c" stroke-width="1.5" fill="none" stroke-dasharray="8 9"></path></g></svg>